<svg width="46" height="46" viewBox="0 0 46 46" fill="none" xmlns="http://www.w3.org/2000/svg">
<path d="M17.8889 0H2.55556C1.87778 0 1.22776 0.269245 0.748505 0.748505C0.269245 1.22776 0 1.87778 0 2.55556V17.8889C0 18.5667 0.269245 19.2167 0.748505 19.6959C1.22776 20.1752 1.87778 20.4444 2.55556 20.4444H17.8889C18.5667 20.4444 19.2167 20.1752 19.6959 19.6959C20.1752 19.2167 20.4444 18.5667 20.4444 17.8889V2.55556C20.4444 1.87778 20.1752 1.22776 19.6959 0.748505C19.2167 0.269245 18.5667 0 17.8889 0ZM43.4444 0H28.1111C27.4333 0 26.7833 0.269245 26.3041 0.748505C25.8248 1.22776 25.5556 1.87778 25.5556 2.55556V17.8889C25.5556 18.5667 25.8248 19.2167 26.3041 19.6959C26.7833 20.1752 27.4333 20.4444 28.1111 20.4444H43.4444C44.1222 20.4444 44.7722 20.1752 45.2515 19.6959C45.7308 19.2167 46 18.5667 46 17.8889V2.55556C46 1.87778 45.7308 1.22776 45.2515 0.748505C44.7722 0.269245 44.1222 0 43.4444 0ZM17.8889 25.5556H2.55556C1.87778 25.5556 1.22776 25.8248 0.748505 26.3041C0.269245 26.7833 0 27.4333 0 28.1111V43.4444C0 44.1222 0.269245 44.7722 0.748505 45.2515C1.22776 45.7308 1.87778 46 2.55556 46H17.8889C18.5667 46 19.2167 45.7308 19.6959 45.2515C20.1752 44.7722 20.4444 44.1222 20.4444 43.4444V28.1111C20.4444 27.4333 20.1752 26.7833 19.6959 26.3041C19.2167 25.8248 18.5667 25.5556 17.8889 25.5556ZM35.7778 25.5556C37.7778 25.5556 39.7338 26.1423 41.4037 27.243C43.0735 28.3437 44.3838 29.9101 45.1722 31.7481C45.9606 33.5862 46.1925 35.6151 45.8392 37.5836C45.4859 39.5522 44.5629 41.3738 43.1845 42.823C41.8061 44.2721 40.0328 45.285 38.0844 45.7363C36.136 46.1876 34.098 46.0575 32.2229 45.362C30.3477 44.6664 28.7178 43.4361 27.5349 41.8234C26.3521 40.2107 25.6683 38.2864 25.5683 36.2889L25.5556 35.7778L25.5683 35.2667C25.6995 32.6473 26.8323 30.1786 28.7326 28.3711C30.6329 26.5636 33.1552 25.5556 35.7778 25.5556Z" fill="white" fill-opacity="0.61"/>
</svg>
