<svg width="521" height="230" viewBox="0 0 521 230" fill="none" xmlns="http://www.w3.org/2000/svg">
<path d="M7.97159 3.27273V12H6.91477V4.38068H6.86364L4.73295 5.79545V4.72159L6.91477 3.27273H7.97159ZM13.3281 12.1193C12.6861 12.1193 12.1392 11.9446 11.6875 11.5952C11.2358 11.2429 10.8906 10.733 10.652 10.0653C10.4134 9.39489 10.294 8.58523 10.294 7.63636C10.294 6.69318 10.4134 5.88778 10.652 5.22017C10.8935 4.54972 11.2401 4.03835 11.6918 3.68608C12.1463 3.33097 12.6918 3.15341 13.3281 3.15341C13.9645 3.15341 14.5085 3.33097 14.9602 3.68608C15.4148 4.03835 15.7614 4.54972 16 5.22017C16.2415 5.88778 16.3622 6.69318 16.3622 7.63636C16.3622 8.58523 16.2429 9.39489 16.0043 10.0653C15.7656 10.733 15.4205 11.2429 14.9688 11.5952C14.517 11.9446 13.9702 12.1193 13.3281 12.1193ZM13.3281 11.1818C13.9645 11.1818 14.4588 10.875 14.8111 10.2614C15.1634 9.64773 15.3395 8.77273 15.3395 7.63636C15.3395 6.88068 15.2585 6.23722 15.0966 5.70597C14.9375 5.17472 14.7074 4.76989 14.4062 4.49148C14.108 4.21307 13.7486 4.07386 13.3281 4.07386C12.6974 4.07386 12.2045 4.38494 11.8494 5.0071C11.4943 5.62642 11.3168 6.50284 11.3168 7.63636C11.3168 8.39205 11.3963 9.03409 11.5554 9.5625C11.7145 10.0909 11.9432 10.4929 12.2415 10.7685C12.5426 11.044 12.9048 11.1818 13.3281 11.1818ZM20.8281 12.1193C20.1861 12.1193 19.6392 11.9446 19.1875 11.5952C18.7358 11.2429 18.3906 10.733 18.152 10.0653C17.9134 9.39489 17.794 8.58523 17.794 7.63636C17.794 6.69318 17.9134 5.88778 18.152 5.22017C18.3935 4.54972 18.7401 4.03835 19.1918 3.68608C19.6463 3.33097 20.1918 3.15341 20.8281 3.15341C21.4645 3.15341 22.0085 3.33097 22.4602 3.68608C22.9148 4.03835 23.2614 4.54972 23.5 5.22017C23.7415 5.88778 23.8622 6.69318 23.8622 7.63636C23.8622 8.58523 23.7429 9.39489 23.5043 10.0653C23.2656 10.733 22.9205 11.2429 22.4688 11.5952C22.017 11.9446 21.4702 12.1193 20.8281 12.1193ZM20.8281 11.1818C21.4645 11.1818 21.9588 10.875 22.3111 10.2614C22.6634 9.64773 22.8395 8.77273 22.8395 7.63636C22.8395 6.88068 22.7585 6.23722 22.5966 5.70597C22.4375 5.17472 22.2074 4.76989 21.9062 4.49148C21.608 4.21307 21.2486 4.07386 20.8281 4.07386C20.1974 4.07386 19.7045 4.38494 19.3494 5.0071C18.9943 5.62642 18.8168 6.50284 18.8168 7.63636C18.8168 8.39205 18.8963 9.03409 19.0554 9.5625C19.2145 10.0909 19.4432 10.4929 19.7415 10.7685C20.0426 11.044 20.4048 11.1818 20.8281 11.1818Z" fill="black" fill-opacity="0.7"/>
<path d="M11.1761 60.5L15.0795 52.7784V52.7102H10.5795V51.7727H16.1705V52.7614L12.2841 60.5H11.1761ZM20.369 60.6193C19.869 60.6193 19.4187 60.5199 19.0181 60.321C18.6175 60.1222 18.2965 59.8494 18.055 59.5028C17.8136 59.1562 17.6815 58.7614 17.6587 58.3182H18.6815C18.7212 58.7131 18.9002 59.0398 19.2184 59.2983C19.5394 59.554 19.9229 59.6818 20.369 59.6818C20.7269 59.6818 21.0451 59.598 21.3235 59.4304C21.6048 59.2628 21.8249 59.0327 21.984 58.7401C22.146 58.4446 22.2269 58.1108 22.2269 57.7386C22.2269 57.358 22.1431 57.0185 21.9755 56.7202C21.8107 56.419 21.5835 56.1818 21.2937 56.0085C21.0039 55.8352 20.6729 55.7472 20.3008 55.7443C20.0337 55.7415 19.7596 55.7827 19.4783 55.8679C19.1971 55.9503 18.9656 56.0568 18.7837 56.1875L17.7951 56.0682L18.3235 51.7727H22.8576V52.7102H19.2099L18.9031 55.2841H18.9542C19.1332 55.142 19.3576 55.0241 19.6275 54.9304C19.8974 54.8366 20.1786 54.7898 20.4712 54.7898C21.0053 54.7898 21.4812 54.9176 21.8988 55.1733C22.3192 55.4261 22.6488 55.7727 22.8874 56.2131C23.1289 56.6534 23.2496 57.1562 23.2496 57.7216C23.2496 58.2784 23.1246 58.7756 22.8746 59.2131C22.6275 59.6477 22.2866 59.9915 21.8519 60.2443C21.4173 60.4943 20.9229 60.6193 20.369 60.6193Z" fill="black" fill-opacity="0.7"/>
<path d="M13.6307 109.119C13.1307 109.119 12.6804 109.02 12.2798 108.821C11.8793 108.622 11.5582 108.349 11.3168 108.003C11.0753 107.656 10.9432 107.261 10.9205 106.818H11.9432C11.983 107.213 12.1619 107.54 12.4801 107.798C12.8011 108.054 13.1847 108.182 13.6307 108.182C13.9886 108.182 14.3068 108.098 14.5852 107.93C14.8665 107.763 15.0866 107.533 15.2457 107.24C15.4077 106.945 15.4886 106.611 15.4886 106.239C15.4886 105.858 15.4048 105.518 15.2372 105.22C15.0724 104.919 14.8452 104.682 14.5554 104.509C14.2656 104.335 13.9347 104.247 13.5625 104.244C13.2955 104.241 13.0213 104.283 12.7401 104.368C12.4588 104.45 12.2273 104.557 12.0455 104.688L11.0568 104.568L11.5852 100.273H16.1193V101.21H12.4716L12.1648 103.784H12.2159C12.3949 103.642 12.6193 103.524 12.8892 103.43C13.1591 103.337 13.4403 103.29 13.733 103.29C14.267 103.29 14.7429 103.418 15.1605 103.673C15.581 103.926 15.9105 104.273 16.1491 104.713C16.3906 105.153 16.5114 105.656 16.5114 106.222C16.5114 106.778 16.3864 107.276 16.1364 107.713C15.8892 108.148 15.5483 108.491 15.1136 108.744C14.679 108.994 14.1847 109.119 13.6307 109.119ZM21.0508 109.119C20.4087 109.119 19.8619 108.945 19.4102 108.595C18.9585 108.243 18.6133 107.733 18.3746 107.065C18.136 106.395 18.0167 105.585 18.0167 104.636C18.0167 103.693 18.136 102.888 18.3746 102.22C18.6161 101.55 18.9627 101.038 19.4144 100.686C19.869 100.331 20.4144 100.153 21.0508 100.153C21.6871 100.153 22.2312 100.331 22.6829 100.686C23.1374 101.038 23.484 101.55 23.7227 102.22C23.9641 102.888 24.0849 103.693 24.0849 104.636C24.0849 105.585 23.9656 106.395 23.7269 107.065C23.4883 107.733 23.1431 108.243 22.6914 108.595C22.2397 108.945 21.6928 109.119 21.0508 109.119ZM21.0508 108.182C21.6871 108.182 22.1815 107.875 22.5337 107.261C22.886 106.648 23.0621 105.773 23.0621 104.636C23.0621 103.881 22.9812 103.237 22.8192 102.706C22.6602 102.175 22.43 101.77 22.1289 101.491C21.8306 101.213 21.4712 101.074 21.0508 101.074C20.4201 101.074 19.9272 101.385 19.5721 102.007C19.217 102.626 19.0394 103.503 19.0394 104.636C19.0394 105.392 19.119 106.034 19.2781 106.562C19.4371 107.091 19.6658 107.493 19.9641 107.768C20.2653 108.044 20.6275 108.182 21.0508 108.182Z" fill="black" fill-opacity="0.7"/>
<path d="M10.9034 157.5V156.733L13.7841 153.58C14.1222 153.21 14.4006 152.889 14.6193 152.616C14.8381 152.341 15 152.082 15.1051 151.841C15.2131 151.597 15.267 151.341 15.267 151.074C15.267 150.767 15.1932 150.501 15.0455 150.277C14.9006 150.053 14.7017 149.879 14.4489 149.757C14.196 149.635 13.9119 149.574 13.5966 149.574C13.2614 149.574 12.9688 149.643 12.7188 149.783C12.4716 149.919 12.2798 150.111 12.1435 150.358C12.0099 150.605 11.9432 150.895 11.9432 151.227H10.9375C10.9375 150.716 11.0554 150.267 11.2912 149.881C11.527 149.494 11.848 149.193 12.2543 148.977C12.6634 148.761 13.1222 148.653 13.6307 148.653C14.142 148.653 14.5952 148.761 14.9901 148.977C15.3849 149.193 15.6946 149.484 15.919 149.851C16.1435 150.217 16.2557 150.625 16.2557 151.074C16.2557 151.395 16.1974 151.709 16.081 152.016C15.9673 152.32 15.7685 152.659 15.4844 153.034C15.2031 153.406 14.8125 153.861 14.3125 154.398L12.3523 156.494V156.562H16.4091V157.5H10.9034ZM20.8963 157.619C20.3963 157.619 19.946 157.52 19.5455 157.321C19.1449 157.122 18.8239 156.849 18.5824 156.503C18.3409 156.156 18.2088 155.761 18.1861 155.318H19.2088C19.2486 155.713 19.4276 156.04 19.7457 156.298C20.0668 156.554 20.4503 156.682 20.8963 156.682C21.2543 156.682 21.5724 156.598 21.8509 156.43C22.1321 156.263 22.3523 156.033 22.5114 155.74C22.6733 155.445 22.7543 155.111 22.7543 154.739C22.7543 154.358 22.6705 154.018 22.5028 153.72C22.3381 153.419 22.1108 153.182 21.821 153.009C21.5313 152.835 21.2003 152.747 20.8281 152.744C20.5611 152.741 20.2869 152.783 20.0057 152.868C19.7244 152.95 19.4929 153.057 19.3111 153.188L18.3224 153.068L18.8509 148.773H23.3849V149.71H19.7372L19.4304 152.284H19.4815C19.6605 152.142 19.8849 152.024 20.1548 151.93C20.4247 151.837 20.706 151.79 20.9986 151.79C21.5327 151.79 22.0085 151.918 22.4261 152.173C22.8466 152.426 23.1761 152.773 23.4148 153.213C23.6562 153.653 23.777 154.156 23.777 154.722C23.777 155.278 23.652 155.776 23.402 156.213C23.1548 156.648 22.8139 156.991 22.3793 157.244C21.9446 157.494 21.4503 157.619 20.8963 157.619Z" fill="black" fill-opacity="0.7"/>
<path d="M20.75 206.119C20.108 206.119 19.5611 205.945 19.1094 205.595C18.6577 205.243 18.3125 204.733 18.0739 204.065C17.8352 203.395 17.7159 202.585 17.7159 201.636C17.7159 200.693 17.8352 199.888 18.0739 199.22C18.3153 198.55 18.6619 198.038 19.1136 197.686C19.5682 197.331 20.1136 197.153 20.75 197.153C21.3864 197.153 21.9304 197.331 22.3821 197.686C22.8366 198.038 23.1832 198.55 23.4219 199.22C23.6634 199.888 23.7841 200.693 23.7841 201.636C23.7841 202.585 23.6648 203.395 23.4261 204.065C23.1875 204.733 22.8423 205.243 22.3906 205.595C21.9389 205.945 21.392 206.119 20.75 206.119ZM20.75 205.182C21.3864 205.182 21.8807 204.875 22.233 204.261C22.5852 203.648 22.7614 202.773 22.7614 201.636C22.7614 200.881 22.6804 200.237 22.5185 199.706C22.3594 199.175 22.1293 198.77 21.8281 198.491C21.5298 198.213 21.1705 198.074 20.75 198.074C20.1193 198.074 19.6264 198.385 19.2713 199.007C18.9162 199.626 18.7386 200.503 18.7386 201.636C18.7386 202.392 18.8182 203.034 18.9773 203.562C19.1364 204.091 19.3651 204.493 19.6634 204.768C19.9645 205.044 20.3267 205.182 20.75 205.182Z" fill="black" fill-opacity="0.7"/>
<line x1="30" y1="5.5" x2="520" y2="5.5" stroke="#00001A" stroke-opacity="0.15" stroke-dasharray="2"/>
<line x1="30" y1="54.75" x2="520" y2="54.75" stroke="#00001A" stroke-opacity="0.15" stroke-dasharray="2"/>
<line x1="30" y1="104" x2="520" y2="104" stroke="#00001A" stroke-opacity="0.15" stroke-dasharray="2"/>
<line x1="30" y1="153.25" x2="520" y2="153.25" stroke="#00001A" stroke-opacity="0.15" stroke-dasharray="2"/>
<line x1="30" y1="202.5" x2="520" y2="202.5" stroke="#00001A" stroke-opacity="0.3"/>
<line x1="29.5" y1="203" x2="29.5" y2="6" stroke="#00001A" stroke-opacity="0.15" stroke-dasharray="2"/>
<line x1="111.167" y1="203" x2="111.167" y2="6" stroke="#00001A" stroke-opacity="0.15" stroke-dasharray="2"/>
<line x1="192.833" y1="203" x2="192.833" y2="6" stroke="#00001A" stroke-opacity="0.15" stroke-dasharray="2"/>
<line x1="274.5" y1="203" x2="274.5" y2="6" stroke="#00001A" stroke-opacity="0.15" stroke-dasharray="2"/>
<line x1="356.167" y1="203" x2="356.167" y2="6" stroke="#00001A" stroke-opacity="0.15" stroke-dasharray="2"/>
<line x1="437.833" y1="203" x2="437.833" y2="6" stroke="#00001A" stroke-opacity="0.15" stroke-dasharray="2"/>
<line x1="519.5" y1="203" x2="519.5" y2="6" stroke="#00001A" stroke-opacity="0.15" stroke-dasharray="2"/>
<path d="M152 176.65C111 176.65 111 24.55 70 24.55V202H480V47.95C439 47.95 439 118.15 398 118.15C357 118.15 357 141.55 316 141.55C275 141.55 275 65.5 234 65.5C193 65.5 193 176.65 152 176.65Z" fill="url(#paint0_linear_78_567)"/>
<path d="M70 24.55C111 24.55 111 176.65 152 176.65C193 176.65 193 65.5 234 65.5C275 65.5 275 141.55 316 141.55C357 141.55 357 118.15 398 118.15C439 118.15 439 47.95 480 47.95M480 47.95V47.95Z" stroke="#FF928A"/>
<circle cx="70" cy="24.55" r="3.5" fill="white" stroke="#FF928A"/>
<circle cx="152" cy="176.65" r="3.5" fill="white" stroke="#FF928A"/>
<circle cx="234" cy="65.5" r="3.5" fill="white" stroke="#FF928A"/>
<circle cx="316" cy="141.55" r="3.5" fill="white" stroke="#FF928A"/>
<circle cx="398" cy="118.15" r="3.5" fill="white" stroke="#FF928A"/>
<circle cx="480" cy="47.95" r="3.5" fill="white" stroke="#FF928A"/>
<path d="M152 77.2001C111 77.2001 111 83.0501 70 83.0501V202H480V133.75C439 133.75 439 114.25 398 114.25C357 114.25 357 61.6001 316 61.6001C275 61.6001 275 125.95 234 125.95C193 125.95 193 77.2001 152 77.2001Z" fill="url(#paint1_linear_78_567)"/>
<path d="M70 83.0501C111 83.0501 111 77.2001 152 77.2001C193 77.2001 193 125.95 234 125.95C275 125.95 275 61.6001 316 61.6001C357 61.6001 357 114.25 398 114.25C439 114.25 439 133.75 480 133.75M480 133.75V133.75Z" stroke="#8979FF"/>
<circle cx="70" cy="83.05" r="3.5" fill="white" stroke="#8979FF"/>
<circle cx="152" cy="77.2002" r="3.5" fill="white" stroke="#8979FF"/>
<circle cx="234" cy="125.95" r="3.5" fill="white" stroke="#8979FF"/>
<circle cx="316" cy="61.6001" r="3.5" fill="white" stroke="#8979FF"/>
<circle cx="398" cy="114.25" r="3.5" fill="white" stroke="#8979FF"/>
<circle cx="480" cy="133.75" r="3.5" fill="white" stroke="#8979FF"/>
<path d="M65.0073 212.455C64.9561 212.023 64.7488 211.688 64.3851 211.449C64.0215 211.21 63.5755 211.091 63.0471 211.091C62.6607 211.091 62.3226 211.153 62.0328 211.278C61.7459 211.403 61.5215 211.575 61.3596 211.794C61.2005 212.013 61.1209 212.261 61.1209 212.54C61.1209 212.773 61.1763 212.973 61.2871 213.141C61.4007 213.305 61.5456 213.443 61.7218 213.554C61.8979 213.662 62.0826 213.751 62.2757 213.822C62.4689 213.891 62.6465 213.946 62.8084 213.989L63.6948 214.227C63.9221 214.287 64.1749 214.369 64.4533 214.474C64.7346 214.58 65.003 214.723 65.2587 214.905C65.5172 215.084 65.7303 215.314 65.8979 215.595C66.0655 215.876 66.1493 216.222 66.1493 216.631C66.1493 217.102 66.0257 217.528 65.7786 217.909C65.5343 218.29 65.1763 218.592 64.7047 218.817C64.236 219.041 63.6664 219.153 62.9959 219.153C62.3709 219.153 61.8297 219.053 61.3723 218.851C60.9178 218.649 60.5598 218.368 60.2985 218.007C60.04 217.646 59.8936 217.227 59.8596 216.75H60.9505C60.9789 217.08 61.0897 217.352 61.2828 217.568C61.4789 217.781 61.726 217.94 62.0243 218.045C62.3255 218.148 62.6493 218.199 62.9959 218.199C63.3993 218.199 63.7615 218.134 64.0826 218.003C64.4036 217.869 64.6578 217.685 64.8453 217.449C65.0328 217.21 65.1266 216.932 65.1266 216.614C65.1266 216.324 65.0456 216.088 64.8837 215.906C64.7218 215.724 64.5087 215.577 64.2445 215.463C63.9803 215.349 63.6948 215.25 63.388 215.165L62.3141 214.858C61.6323 214.662 61.0925 214.382 60.6948 214.018C60.2971 213.655 60.0982 213.179 60.0982 212.591C60.0982 212.102 60.2303 211.676 60.4945 211.312C60.7615 210.946 61.1195 210.662 61.5684 210.46C62.0201 210.256 62.5243 210.153 63.0811 210.153C63.6436 210.153 64.1436 210.254 64.5811 210.456C65.0186 210.655 65.3652 210.928 65.6209 211.274C65.8794 211.621 66.0158 212.014 66.03 212.455H65.0073ZM71.8755 216.324V212.455H72.8812V219H71.8755V217.892H71.8074C71.6539 218.224 71.4153 218.507 71.0914 218.74C70.7676 218.97 70.3585 219.085 69.8642 219.085C69.4551 219.085 69.0914 218.996 68.7733 218.817C68.4551 218.635 68.2051 218.362 68.0233 217.999C67.8414 217.632 67.7505 217.17 67.7505 216.614V212.455H68.7562V216.545C68.7562 217.023 68.8897 217.403 69.1568 217.688C69.4267 217.972 69.7704 218.114 70.188 218.114C70.438 218.114 70.6923 218.05 70.9508 217.922C71.2122 217.794 71.4309 217.598 71.6071 217.334C71.786 217.07 71.8755 216.733 71.8755 216.324ZM75.7289 215.062V219H74.7232V212.455H75.6948V213.477H75.78C75.9334 213.145 76.1664 212.878 76.4789 212.676C76.7914 212.472 77.1948 212.369 77.6891 212.369C78.1323 212.369 78.5201 212.46 78.8525 212.642C79.1848 212.821 79.4434 213.094 79.628 213.46C79.8127 213.824 79.905 214.284 79.905 214.841V219H78.8993V214.909C78.8993 214.395 78.7658 213.994 78.4988 213.707C78.2317 213.418 77.8652 213.273 77.3993 213.273C77.0783 213.273 76.7914 213.342 76.5385 213.482C76.2885 213.621 76.0911 213.824 75.9462 214.091C75.8013 214.358 75.7289 214.682 75.7289 215.062Z" fill="black" fill-opacity="0.7"/>
<path d="M140.629 210.273H141.89L144.856 217.517H144.959L147.925 210.273H149.186V219H148.197V212.369H148.112L145.385 219H144.43L141.703 212.369H141.618V219H140.629V210.273ZM153.828 219.136C153.237 219.136 152.718 218.996 152.272 218.714C151.829 218.433 151.482 218.04 151.232 217.534C150.985 217.028 150.862 216.437 150.862 215.761C150.862 215.08 150.985 214.484 151.232 213.976C151.482 213.467 151.829 213.072 152.272 212.791C152.718 212.51 153.237 212.369 153.828 212.369C154.419 212.369 154.936 212.51 155.379 212.791C155.825 213.072 156.171 213.467 156.419 213.976C156.669 214.484 156.794 215.08 156.794 215.761C156.794 216.437 156.669 217.028 156.419 217.534C156.171 218.04 155.825 218.433 155.379 218.714C154.936 218.996 154.419 219.136 153.828 219.136ZM153.828 218.233C154.276 218.233 154.646 218.118 154.936 217.888C155.225 217.658 155.44 217.355 155.579 216.98C155.718 216.605 155.788 216.199 155.788 215.761C155.788 215.324 155.718 214.916 155.579 214.538C155.44 214.161 155.225 213.855 154.936 213.622C154.646 213.389 154.276 213.273 153.828 213.273C153.379 213.273 153.009 213.389 152.72 213.622C152.43 213.855 152.215 214.161 152.076 214.538C151.937 214.916 151.867 215.324 151.867 215.761C151.867 216.199 151.937 216.605 152.076 216.98C152.215 217.355 152.43 217.658 152.72 217.888C153.009 218.118 153.379 218.233 153.828 218.233ZM159.334 215.062V219H158.329V212.455H159.3V213.477H159.385C159.539 213.145 159.772 212.878 160.084 212.676C160.397 212.472 160.8 212.369 161.295 212.369C161.738 212.369 162.126 212.46 162.458 212.642C162.79 212.821 163.049 213.094 163.233 213.46C163.418 213.824 163.51 214.284 163.51 214.841V219H162.505V214.909C162.505 214.395 162.371 213.994 162.104 213.707C161.837 213.418 161.471 213.273 161.005 213.273C160.684 213.273 160.397 213.342 160.144 213.482C159.894 213.621 159.697 213.824 159.552 214.091C159.407 214.358 159.334 214.682 159.334 215.062Z" fill="black" fill-opacity="0.7"/>
<path d="M224.197 211.21V210.273H230.742V211.21H227.998V219H226.941V211.21H224.197ZM235.471 216.324V212.455H236.477V219H235.471V217.892H235.403C235.25 218.224 235.011 218.507 234.687 218.74C234.363 218.97 233.954 219.085 233.46 219.085C233.051 219.085 232.687 218.996 232.369 218.817C232.051 218.635 231.801 218.362 231.619 217.999C231.437 217.632 231.346 217.17 231.346 216.614V212.455H232.352V216.545C232.352 217.023 232.485 217.403 232.752 217.688C233.022 217.972 233.366 218.114 233.784 218.114C234.034 218.114 234.288 218.05 234.547 217.922C234.808 217.794 235.027 217.598 235.203 217.334C235.382 217.07 235.471 216.733 235.471 216.324ZM241.063 219.136C240.433 219.136 239.888 218.997 239.431 218.719C238.977 218.438 238.626 218.045 238.379 217.543C238.134 217.037 238.012 216.449 238.012 215.778C238.012 215.108 238.134 214.517 238.379 214.006C238.626 213.491 238.969 213.091 239.41 212.804C239.853 212.514 240.37 212.369 240.961 212.369C241.302 212.369 241.638 212.426 241.971 212.54C242.303 212.653 242.606 212.838 242.879 213.094C243.151 213.347 243.369 213.682 243.531 214.099C243.692 214.517 243.773 215.031 243.773 215.642V216.068H238.728V215.199H242.751C242.751 214.83 242.677 214.5 242.529 214.21C242.384 213.92 242.177 213.692 241.907 213.524C241.64 213.357 241.325 213.273 240.961 213.273C240.56 213.273 240.214 213.372 239.921 213.571C239.631 213.767 239.408 214.023 239.252 214.338C239.096 214.653 239.018 214.991 239.018 215.352V215.932C239.018 216.426 239.103 216.845 239.273 217.189C239.447 217.53 239.687 217.79 239.994 217.969C240.3 218.145 240.657 218.233 241.063 218.233C241.327 218.233 241.566 218.196 241.779 218.122C241.995 218.045 242.181 217.932 242.337 217.781C242.494 217.628 242.614 217.437 242.7 217.21L243.671 217.483C243.569 217.812 243.397 218.102 243.156 218.352C242.914 218.599 242.616 218.793 242.261 218.932C241.906 219.068 241.506 219.136 241.063 219.136Z" fill="black" fill-opacity="0.7"/>
<path d="M306.033 219L303.646 210.273H304.72L306.544 217.381H306.629L308.487 210.273H309.68L311.538 217.381H311.624L313.447 210.273H314.521L312.135 219H311.044L309.118 212.045H309.05L307.124 219H306.033ZM317.837 219.136C317.206 219.136 316.662 218.997 316.205 218.719C315.75 218.438 315.399 218.045 315.152 217.543C314.908 217.037 314.786 216.449 314.786 215.778C314.786 215.108 314.908 214.517 315.152 214.006C315.399 213.491 315.743 213.091 316.183 212.804C316.626 212.514 317.143 212.369 317.734 212.369C318.075 212.369 318.412 212.426 318.744 212.54C319.077 212.653 319.379 212.838 319.652 213.094C319.925 213.347 320.142 213.682 320.304 214.099C320.466 214.517 320.547 215.031 320.547 215.642V216.068H315.501V215.199H319.524C319.524 214.83 319.45 214.5 319.303 214.21C319.158 213.92 318.95 213.692 318.68 213.524C318.413 213.357 318.098 213.273 317.734 213.273C317.334 213.273 316.987 213.372 316.695 213.571C316.405 213.767 316.182 214.023 316.026 214.338C315.869 214.653 315.791 214.991 315.791 215.352V215.932C315.791 216.426 315.876 216.845 316.047 217.189C316.22 217.53 316.46 217.79 316.767 217.969C317.074 218.145 317.43 218.233 317.837 218.233C318.101 218.233 318.339 218.196 318.553 218.122C318.768 218.045 318.955 217.932 319.111 217.781C319.267 217.628 319.388 217.437 319.473 217.21L320.445 217.483C320.342 217.812 320.17 218.102 319.929 218.352C319.688 218.599 319.389 218.793 319.034 218.932C318.679 219.068 318.28 219.136 317.837 219.136ZM324.548 219.136C324.003 219.136 323.521 218.999 323.104 218.723C322.686 218.445 322.359 218.053 322.124 217.547C321.888 217.038 321.77 216.438 321.77 215.744C321.77 215.057 321.888 214.46 322.124 213.955C322.359 213.449 322.688 213.058 323.108 212.783C323.528 212.507 324.014 212.369 324.565 212.369C324.991 212.369 325.328 212.44 325.575 212.582C325.825 212.722 326.016 212.881 326.146 213.06C326.28 213.236 326.384 213.381 326.457 213.494H326.543V210.273H327.548V219H326.577V217.994H326.457C326.384 218.114 326.278 218.264 326.142 218.446C326.006 218.625 325.811 218.786 325.558 218.928C325.305 219.067 324.969 219.136 324.548 219.136ZM324.685 218.233C325.088 218.233 325.429 218.128 325.707 217.918C325.986 217.705 326.197 217.411 326.342 217.036C326.487 216.658 326.56 216.222 326.56 215.727C326.56 215.239 326.489 214.811 326.347 214.445C326.205 214.075 325.994 213.788 325.716 213.584C325.438 213.376 325.094 213.273 324.685 213.273C324.259 213.273 323.903 213.382 323.619 213.601C323.338 213.817 323.126 214.111 322.984 214.483C322.845 214.852 322.776 215.267 322.776 215.727C322.776 216.193 322.847 216.616 322.989 216.997C323.134 217.375 323.347 217.676 323.628 217.901C323.912 218.122 324.264 218.233 324.685 218.233Z" fill="black" fill-opacity="0.7"/>
<path d="M387.699 211.21V210.273H394.244V211.21H391.5V219H390.443V211.21H387.699ZM396.744 215.062V219H395.739V210.273H396.744V213.477H396.83C396.983 213.139 397.213 212.871 397.52 212.672C397.83 212.47 398.242 212.369 398.756 212.369C399.202 212.369 399.593 212.459 399.928 212.638C400.263 212.814 400.523 213.085 400.708 213.452C400.895 213.815 400.989 214.278 400.989 214.841V219H399.983V214.909C399.983 214.389 399.848 213.987 399.578 213.703C399.311 213.416 398.941 213.273 398.466 213.273C398.137 213.273 397.841 213.342 397.58 213.482C397.321 213.621 397.117 213.824 396.966 214.091C396.818 214.358 396.744 214.682 396.744 215.062ZM406.954 216.324V212.455H407.959V219H406.954V217.892H406.885C406.732 218.224 406.493 218.507 406.17 218.74C405.846 218.97 405.437 219.085 404.942 219.085C404.533 219.085 404.17 218.996 403.851 218.817C403.533 218.635 403.283 218.362 403.101 217.999C402.92 217.632 402.829 217.17 402.829 216.614V212.455H403.834V216.545C403.834 217.023 403.968 217.403 404.235 217.688C404.505 217.972 404.849 218.114 405.266 218.114C405.516 218.114 405.77 218.05 406.029 217.922C406.29 217.794 406.509 217.598 406.685 217.334C406.864 217.07 406.954 216.733 406.954 216.324Z" fill="black" fill-opacity="0.7"/>
<path d="M473.914 219V210.273H479.147V211.21H474.971V214.159H478.755V215.097H474.971V219H473.914ZM480.751 219V212.455H481.722V213.443H481.79C481.91 213.119 482.126 212.857 482.438 212.655C482.751 212.453 483.103 212.352 483.495 212.352C483.569 212.352 483.661 212.354 483.772 212.357C483.883 212.359 483.966 212.364 484.023 212.369V213.392C483.989 213.384 483.911 213.371 483.789 213.354C483.67 213.334 483.543 213.324 483.41 213.324C483.091 213.324 482.807 213.391 482.557 213.524C482.31 213.655 482.114 213.837 481.969 214.07C481.827 214.3 481.756 214.562 481.756 214.858V219H480.751ZM485.215 219V212.455H486.221V219H485.215ZM485.727 211.364C485.531 211.364 485.362 211.297 485.22 211.163C485.08 211.03 485.011 210.869 485.011 210.682C485.011 210.494 485.08 210.334 485.22 210.2C485.362 210.067 485.531 210 485.727 210C485.923 210 486.09 210.067 486.23 210.2C486.372 210.334 486.443 210.494 486.443 210.682C486.443 210.869 486.372 211.03 486.23 211.163C486.09 211.297 485.923 211.364 485.727 211.364Z" fill="black" fill-opacity="0.7"/>
<defs>
<linearGradient id="paint0_linear_78_567" x1="275" y1="24.55" x2="275" y2="202" gradientUnits="userSpaceOnUse">
<stop stop-color="#FF928A" stop-opacity="0.3"/>
<stop offset="1" stop-color="#FF928A" stop-opacity="0.05"/>
</linearGradient>
<linearGradient id="paint1_linear_78_567" x1="275" y1="61.6001" x2="275" y2="202" gradientUnits="userSpaceOnUse">
<stop stop-color="#8979FF" stop-opacity="0.3"/>
<stop offset="1" stop-color="#8979FF" stop-opacity="0.05"/>
</linearGradient>
</defs>
</svg>
