<svg width="346" height="48" viewBox="0 0 346 48" fill="none" xmlns="http://www.w3.org/2000/svg">
<circle cx="27" cy="12" r="3.5" fill="#8979FF" stroke="white"/>
<path d="M44.8295 9.95455C44.7784 9.52273 44.571 9.1875 44.2074 8.94886C43.8438 8.71023 43.3977 8.59091 42.8693 8.59091C42.483 8.59091 42.1449 8.65341 41.8551 8.77841C41.5682 8.90341 41.3438 9.07528 41.1818 9.29403C41.0227 9.51278 40.9432 9.76136 40.9432 10.0398C40.9432 10.2727 40.9986 10.473 41.1094 10.6406C41.223 10.8054 41.3679 10.9432 41.544 11.054C41.7202 11.1619 41.9048 11.2514 42.098 11.3224C42.2912 11.3906 42.4688 11.446 42.6307 11.4886L43.517 11.7273C43.7443 11.7869 43.9972 11.8693 44.2756 11.9744C44.5568 12.0795 44.8253 12.223 45.081 12.4048C45.3395 12.5838 45.5526 12.8139 45.7202 13.0952C45.8878 13.3764 45.9716 13.7216 45.9716 14.1307C45.9716 14.6023 45.848 15.0284 45.6009 15.4091C45.3565 15.7898 44.9986 16.0923 44.527 16.3168C44.0582 16.5412 43.4886 16.6534 42.8182 16.6534C42.1932 16.6534 41.652 16.5526 41.1946 16.3509C40.7401 16.1491 40.3821 15.8679 40.1207 15.5071C39.8622 15.1463 39.7159 14.7273 39.6818 14.25H40.7727C40.8011 14.5795 40.9119 14.8523 41.1051 15.0682C41.3011 15.2812 41.5483 15.4403 41.8466 15.5455C42.1477 15.6477 42.4716 15.6989 42.8182 15.6989C43.2216 15.6989 43.5838 15.6335 43.9048 15.5028C44.2259 15.3693 44.4801 15.1847 44.6676 14.9489C44.8551 14.7102 44.9489 14.4318 44.9489 14.1136C44.9489 13.8239 44.8679 13.5881 44.706 13.4062C44.544 13.2244 44.331 13.0767 44.0668 12.9631C43.8026 12.8494 43.517 12.75 43.2102 12.6648L42.1364 12.358C41.4545 12.1619 40.9148 11.8821 40.517 11.5185C40.1193 11.1548 39.9205 10.679 39.9205 10.0909C39.9205 9.60227 40.0526 9.17614 40.3168 8.8125C40.5838 8.44602 40.9418 8.16193 41.3906 7.96023C41.8423 7.75568 42.3466 7.65341 42.9034 7.65341C43.4659 7.65341 43.9659 7.75426 44.4034 7.95597C44.8409 8.15483 45.1875 8.42756 45.4432 8.77415C45.7017 9.12074 45.8381 9.5142 45.8523 9.95455H44.8295ZM51.6978 13.8239V9.95455H52.7035V16.5H51.6978V15.392H51.6296C51.4762 15.7244 51.2376 16.0071 50.9137 16.2401C50.5898 16.4702 50.1808 16.5852 49.6864 16.5852C49.2773 16.5852 48.9137 16.4957 48.5955 16.3168C48.2773 16.1349 48.0273 15.8622 47.8455 15.4986C47.6637 15.1321 47.5728 14.6705 47.5728 14.1136V9.95455H48.5785V14.0455C48.5785 14.5227 48.712 14.9034 48.979 15.1875C49.2489 15.4716 49.5927 15.6136 50.0103 15.6136C50.2603 15.6136 50.5146 15.5497 50.7731 15.4219C51.0344 15.294 51.2532 15.098 51.4293 14.8338C51.6083 14.5696 51.6978 14.233 51.6978 13.8239ZM55.5511 12.5625V16.5H54.5455V9.95455H55.517V10.9773H55.6023C55.7557 10.6449 55.9886 10.3778 56.3011 10.1761C56.6136 9.97159 57.017 9.86932 57.5114 9.86932C57.9545 9.86932 58.3423 9.96023 58.6747 10.142C59.0071 10.321 59.2656 10.5938 59.4503 10.9602C59.6349 11.3239 59.7273 11.7841 59.7273 12.3409V16.5H58.7216V12.4091C58.7216 11.8949 58.5881 11.4943 58.321 11.2074C58.054 10.9176 57.6875 10.7727 57.2216 10.7727C56.9006 10.7727 56.6136 10.8423 56.3608 10.9815C56.1108 11.1207 55.9134 11.3239 55.7685 11.5909C55.6236 11.858 55.5511 12.1818 55.5511 12.5625ZM64.0366 16.6364C63.4911 16.6364 63.0096 16.4986 62.592 16.223C62.1744 15.9446 61.8477 15.5526 61.6119 15.0469C61.3761 14.5384 61.2582 13.9375 61.2582 13.2443C61.2582 12.5568 61.3761 11.9602 61.6119 11.4545C61.8477 10.9489 62.1758 10.5582 62.5962 10.2827C63.0167 10.0071 63.5025 9.86932 64.0536 9.86932C64.4798 9.86932 64.8164 9.94034 65.0636 10.0824C65.3136 10.2216 65.5039 10.3807 65.6346 10.5597C65.7681 10.7358 65.8718 10.8807 65.9457 10.9943H66.0309V7.77273H67.0366V16.5H66.065V15.4943H65.9457C65.8718 15.6136 65.7667 15.7642 65.6303 15.946C65.494 16.125 65.2994 16.2855 65.0465 16.4276C64.7937 16.5668 64.457 16.6364 64.0366 16.6364ZM64.1729 15.733C64.5763 15.733 64.9173 15.6278 65.1957 15.4176C65.4741 15.2045 65.6857 14.9105 65.8306 14.5355C65.9755 14.1577 66.0479 13.7216 66.0479 13.2273C66.0479 12.7386 65.9769 12.3111 65.8349 11.9446C65.6928 11.5753 65.4826 11.2884 65.2042 11.0838C64.9258 10.8764 64.582 10.7727 64.1729 10.7727C63.7468 10.7727 63.3917 10.8821 63.1076 11.1009C62.8263 11.3168 62.6147 11.6108 62.4727 11.983C62.3335 12.3523 62.2638 12.767 62.2638 13.2273C62.2638 13.6932 62.3349 14.1165 62.4769 14.4972C62.6218 14.875 62.8349 15.1761 63.1161 15.4006C63.4002 15.6222 63.7525 15.733 64.1729 15.733ZM70.9442 16.6534C70.5295 16.6534 70.1531 16.5753 69.815 16.419C69.4769 16.2599 69.2085 16.0312 69.0096 15.733C68.8107 15.4318 68.7113 15.0682 68.7113 14.642C68.7113 14.267 68.7852 13.9631 68.9329 13.7301C69.0806 13.4943 69.2781 13.3097 69.5252 13.1761C69.7724 13.0426 70.0451 12.9432 70.3434 12.8778C70.6445 12.8097 70.9471 12.7557 71.2511 12.7159C71.6488 12.6648 71.9712 12.6264 72.2184 12.6009C72.4684 12.5724 72.6502 12.5256 72.7638 12.4602C72.8803 12.3949 72.9386 12.2812 72.9386 12.1193V12.0852C72.9386 11.6648 72.8235 11.3381 72.5934 11.1051C72.3661 10.8722 72.021 10.7557 71.5579 10.7557C71.0778 10.7557 70.7013 10.8608 70.4286 11.071C70.1559 11.2812 69.9641 11.5057 69.8533 11.7443L68.8988 11.4034C69.0692 11.0057 69.2965 10.696 69.5806 10.4744C69.8675 10.25 70.18 10.0937 70.5181 10.0057C70.859 9.91477 71.1942 9.86932 71.5238 9.86932C71.734 9.86932 71.9755 9.89489 72.2482 9.94602C72.5238 9.99432 72.7894 10.0952 73.0451 10.2486C73.3036 10.402 73.5181 10.6335 73.6886 10.9432C73.859 11.2528 73.9442 11.6676 73.9442 12.1875V16.5H72.9386V15.6136H72.8874C72.8192 15.7557 72.7056 15.9077 72.5465 16.0696C72.3874 16.2315 72.1758 16.3693 71.9116 16.483C71.6474 16.5966 71.3249 16.6534 70.9442 16.6534ZM71.0977 15.75C71.4954 15.75 71.8306 15.6719 72.1033 15.5156C72.3789 15.3594 72.5863 15.1577 72.7255 14.9105C72.8675 14.6634 72.9386 14.4034 72.9386 14.1307V13.2102C72.896 13.2614 72.8022 13.3082 72.6573 13.3509C72.5153 13.3906 72.3505 13.4261 72.163 13.4574C71.9783 13.4858 71.7979 13.5114 71.6218 13.5341C71.4485 13.554 71.3079 13.571 71.1999 13.5852C70.9386 13.6193 70.6942 13.6747 70.467 13.7514C70.2425 13.8253 70.0607 13.9375 69.9215 14.0881C69.7852 14.2358 69.717 14.4375 69.717 14.6932C69.717 15.0426 69.8462 15.3068 70.1048 15.4858C70.3661 15.6619 70.6971 15.75 71.0977 15.75ZM76.1932 18.9545C76.0227 18.9545 75.8707 18.9403 75.7372 18.9119C75.6037 18.8864 75.5114 18.8608 75.4602 18.8352L75.7159 17.9489C75.9602 18.0114 76.1761 18.0341 76.3636 18.017C76.5511 18 76.7173 17.9162 76.8622 17.7656C77.0099 17.6179 77.1449 17.3778 77.267 17.0455L77.4545 16.5341L75.0341 9.95455H76.125L77.9318 15.1705H78L79.8068 9.95455H80.8977L78.1193 17.4545C77.9943 17.7926 77.8395 18.0724 77.6548 18.294C77.4702 18.5185 77.2557 18.6847 77.0114 18.7926C76.7699 18.9006 76.4972 18.9545 76.1932 18.9545Z" fill="black" fill-opacity="0.7"/>
<circle cx="98" cy="12" r="3.5" fill="#FF928A" stroke="white"/>
<path d="M111.057 7.77273H112.318L115.284 15.017H115.386L118.352 7.77273H119.614V16.5H118.625V9.86932H118.54L115.812 16.5H114.858L112.131 9.86932H112.045V16.5H111.057V7.77273ZM124.255 16.6364C123.664 16.6364 123.146 16.4957 122.7 16.2145C122.257 15.9332 121.91 15.5398 121.66 15.0341C121.413 14.5284 121.289 13.9375 121.289 13.2614C121.289 12.5795 121.413 11.9844 121.66 11.4759C121.91 10.9673 122.257 10.5724 122.7 10.2912C123.146 10.0099 123.664 9.86932 124.255 9.86932C124.846 9.86932 125.363 10.0099 125.806 10.2912C126.252 10.5724 126.599 10.9673 126.846 11.4759C127.096 11.9844 127.221 12.5795 127.221 13.2614C127.221 13.9375 127.096 14.5284 126.846 15.0341C126.599 15.5398 126.252 15.9332 125.806 16.2145C125.363 16.4957 124.846 16.6364 124.255 16.6364ZM124.255 15.733C124.704 15.733 125.074 15.6179 125.363 15.3878C125.653 15.1577 125.868 14.8551 126.007 14.4801C126.146 14.1051 126.216 13.6989 126.216 13.2614C126.216 12.8239 126.146 12.4162 126.007 12.0384C125.868 11.6605 125.653 11.3551 125.363 11.1222C125.074 10.8892 124.704 10.7727 124.255 10.7727C123.806 10.7727 123.437 10.8892 123.147 11.1222C122.858 11.3551 122.643 11.6605 122.504 12.0384C122.365 12.4162 122.295 12.8239 122.295 13.2614C122.295 13.6989 122.365 14.1051 122.504 14.4801C122.643 14.8551 122.858 15.1577 123.147 15.3878C123.437 15.6179 123.806 15.733 124.255 15.733ZM129.762 12.5625V16.5H128.756V9.95455H129.728V10.9773H129.813C129.967 10.6449 130.2 10.3778 130.512 10.1761C130.825 9.97159 131.228 9.86932 131.722 9.86932C132.165 9.86932 132.553 9.96023 132.886 10.142C133.218 10.321 133.477 10.5938 133.661 10.9602C133.846 11.3239 133.938 11.7841 133.938 12.3409V16.5H132.933V12.4091C132.933 11.8949 132.799 11.4943 132.532 11.2074C132.265 10.9176 131.898 10.7727 131.433 10.7727C131.112 10.7727 130.825 10.8423 130.572 10.9815C130.322 11.1207 130.124 11.3239 129.979 11.5909C129.835 11.858 129.762 12.1818 129.762 12.5625ZM138.248 16.6364C137.702 16.6364 137.221 16.4986 136.803 16.223C136.385 15.9446 136.059 15.5526 135.823 15.0469C135.587 14.5384 135.469 13.9375 135.469 13.2443C135.469 12.5568 135.587 11.9602 135.823 11.4545C136.059 10.9489 136.387 10.5582 136.807 10.2827C137.228 10.0071 137.713 9.86932 138.265 9.86932C138.691 9.86932 139.027 9.94034 139.275 10.0824C139.525 10.2216 139.715 10.3807 139.846 10.5597C139.979 10.7358 140.083 10.8807 140.157 10.9943H140.242V7.77273H141.248V16.5H140.276V15.4943H140.157C140.083 15.6136 139.978 15.7642 139.841 15.946C139.705 16.125 139.51 16.2855 139.257 16.4276C139.005 16.5668 138.668 16.6364 138.248 16.6364ZM138.384 15.733C138.787 15.733 139.128 15.6278 139.407 15.4176C139.685 15.2045 139.897 14.9105 140.042 14.5355C140.186 14.1577 140.259 13.7216 140.259 13.2273C140.259 12.7386 140.188 12.3111 140.046 11.9446C139.904 11.5753 139.694 11.2884 139.415 11.0838C139.137 10.8764 138.793 10.7727 138.384 10.7727C137.958 10.7727 137.603 10.8821 137.319 11.1009C137.037 11.3168 136.826 11.6108 136.684 11.983C136.544 12.3523 136.475 12.767 136.475 13.2273C136.475 13.6932 136.546 14.1165 136.688 14.4972C136.833 14.875 137.046 15.1761 137.327 15.4006C137.611 15.6222 137.963 15.733 138.384 15.733ZM145.155 16.6534C144.74 16.6534 144.364 16.5753 144.026 16.419C143.688 16.2599 143.419 16.0312 143.221 15.733C143.022 15.4318 142.922 15.0682 142.922 14.642C142.922 14.267 142.996 13.9631 143.144 13.7301C143.292 13.4943 143.489 13.3097 143.736 13.1761C143.983 13.0426 144.256 12.9432 144.554 12.8778C144.855 12.8097 145.158 12.7557 145.462 12.7159C145.86 12.6648 146.182 12.6264 146.429 12.6009C146.679 12.5724 146.861 12.5256 146.975 12.4602C147.091 12.3949 147.15 12.2812 147.15 12.1193V12.0852C147.15 11.6648 147.034 11.3381 146.804 11.1051C146.577 10.8722 146.232 10.7557 145.769 10.7557C145.289 10.7557 144.912 10.8608 144.64 11.071C144.367 11.2812 144.175 11.5057 144.064 11.7443L143.11 11.4034C143.28 11.0057 143.507 10.696 143.792 10.4744C144.078 10.25 144.391 10.0937 144.729 10.0057C145.07 9.91477 145.405 9.86932 145.735 9.86932C145.945 9.86932 146.186 9.89489 146.459 9.94602C146.735 9.99432 147 10.0952 147.256 10.2486C147.515 10.402 147.729 10.6335 147.9 10.9432C148.07 11.2528 148.155 11.6676 148.155 12.1875V16.5H147.15V15.6136H147.098C147.03 15.7557 146.917 15.9077 146.757 16.0696C146.598 16.2315 146.387 16.3693 146.123 16.483C145.858 16.5966 145.536 16.6534 145.155 16.6534ZM145.309 15.75C145.706 15.75 146.042 15.6719 146.314 15.5156C146.59 15.3594 146.797 15.1577 146.936 14.9105C147.078 14.6634 147.15 14.4034 147.15 14.1307V13.2102C147.107 13.2614 147.013 13.3082 146.868 13.3509C146.726 13.3906 146.561 13.4261 146.374 13.4574C146.189 13.4858 146.009 13.5114 145.833 13.5341C145.659 13.554 145.519 13.571 145.411 13.5852C145.15 13.6193 144.905 13.6747 144.678 13.7514C144.453 13.8253 144.272 13.9375 144.132 14.0881C143.996 14.2358 143.928 14.4375 143.928 14.6932C143.928 15.0426 144.057 15.3068 144.316 15.4858C144.577 15.6619 144.908 15.75 145.309 15.75ZM150.404 18.9545C150.234 18.9545 150.082 18.9403 149.948 18.9119C149.815 18.8864 149.722 18.8608 149.671 18.8352L149.927 17.9489C150.171 18.0114 150.387 18.0341 150.575 18.017C150.762 18 150.928 17.9162 151.073 17.7656C151.221 17.6179 151.356 17.3778 151.478 17.0455L151.665 16.5341L149.245 9.95455H150.336L152.143 15.1705H152.211L154.018 9.95455H155.109L152.33 17.4545C152.205 17.7926 152.05 18.0724 151.866 18.294C151.681 18.5185 151.467 18.6847 151.222 18.7926C150.981 18.9006 150.708 18.9545 150.404 18.9545Z" fill="black" fill-opacity="0.7"/>
<circle cx="172" cy="12" r="3.5" fill="#3CC3DF" stroke="white"/>
<path d="M184.58 8.71023V7.77273H191.125V8.71023H188.381V16.5H187.324V8.71023H184.58ZM195.854 13.8239V9.95455H196.86V16.5H195.854V15.392H195.786C195.632 15.7244 195.394 16.0071 195.07 16.2401C194.746 16.4702 194.337 16.5852 193.843 16.5852C193.434 16.5852 193.07 16.4957 192.752 16.3168C192.434 16.1349 192.184 15.8622 192.002 15.4986C191.82 15.1321 191.729 14.6705 191.729 14.1136V9.95455H192.735V14.0455C192.735 14.5227 192.868 14.9034 193.135 15.1875C193.405 15.4716 193.749 15.6136 194.167 15.6136C194.417 15.6136 194.671 15.5497 194.929 15.4219C195.191 15.294 195.409 15.098 195.586 14.8338C195.765 14.5696 195.854 14.233 195.854 13.8239ZM201.446 16.6364C200.815 16.6364 200.271 16.4972 199.814 16.2188C199.359 15.9375 199.009 15.5455 198.761 15.0426C198.517 14.5369 198.395 13.9489 198.395 13.2784C198.395 12.608 198.517 12.017 198.761 11.5057C199.009 10.9915 199.352 10.5909 199.793 10.304C200.236 10.0142 200.753 9.86932 201.344 9.86932C201.685 9.86932 202.021 9.92614 202.354 10.0398C202.686 10.1534 202.989 10.3381 203.261 10.5938C203.534 10.8466 203.751 11.1818 203.913 11.5994C204.075 12.017 204.156 12.5312 204.156 13.142V13.5682H199.111V12.6989H203.134C203.134 12.3295 203.06 12 202.912 11.7102C202.767 11.4205 202.56 11.1918 202.29 11.0241C202.023 10.8565 201.707 10.7727 201.344 10.7727C200.943 10.7727 200.597 10.8722 200.304 11.071C200.014 11.267 199.791 11.5227 199.635 11.8381C199.479 12.1534 199.401 12.4915 199.401 12.8523V13.4318C199.401 13.9261 199.486 14.3452 199.656 14.6889C199.83 15.0298 200.07 15.2898 200.376 15.4688C200.683 15.6449 201.04 15.733 201.446 15.733C201.71 15.733 201.949 15.696 202.162 15.6222C202.378 15.5455 202.564 15.4318 202.72 15.2812C202.876 15.1278 202.997 14.9375 203.082 14.7102L204.054 14.983C203.952 15.3125 203.78 15.6023 203.538 15.8523C203.297 16.0994 202.999 16.2926 202.643 16.4318C202.288 16.5682 201.889 16.6364 201.446 16.6364ZM210.322 11.4205L209.419 11.6761C209.362 11.5256 209.278 11.3793 209.168 11.2372C209.06 11.0923 208.912 10.973 208.724 10.8793C208.537 10.7855 208.297 10.7386 208.004 10.7386C207.604 10.7386 207.27 10.831 207.003 11.0156C206.739 11.1974 206.607 11.429 206.607 11.7102C206.607 11.9602 206.697 12.1577 206.879 12.3026C207.061 12.4474 207.345 12.5682 207.732 12.6648L208.703 12.9034C209.288 13.0455 209.724 13.2628 210.011 13.5554C210.298 13.8452 210.442 14.2187 210.442 14.6761C210.442 15.0511 210.334 15.3864 210.118 15.6818C209.905 15.9773 209.607 16.2102 209.223 16.3807C208.839 16.5511 208.393 16.6364 207.885 16.6364C207.217 16.6364 206.665 16.4915 206.227 16.2017C205.79 15.9119 205.513 15.4886 205.396 14.9318L206.351 14.6932C206.442 15.0455 206.614 15.3097 206.866 15.4858C207.122 15.6619 207.456 15.75 207.868 15.75C208.337 15.75 208.709 15.6506 208.984 15.4517C209.263 15.25 209.402 15.0085 209.402 14.7273C209.402 14.5 209.322 14.3097 209.163 14.1562C209.004 14 208.76 13.8835 208.43 13.8068L207.339 13.5511C206.74 13.4091 206.3 13.1889 206.018 12.8906C205.74 12.5895 205.601 12.2131 205.601 11.7614C205.601 11.392 205.705 11.0653 205.912 10.7812C206.122 10.4972 206.408 10.2741 206.768 10.1122C207.132 9.95028 207.544 9.86932 208.004 9.86932C208.652 9.86932 209.161 10.0114 209.53 10.2955C209.902 10.5795 210.166 10.9545 210.322 11.4205ZM214.427 16.6364C213.882 16.6364 213.4 16.4986 212.983 16.223C212.565 15.9446 212.238 15.5526 212.002 15.0469C211.767 14.5384 211.649 13.9375 211.649 13.2443C211.649 12.5568 211.767 11.9602 212.002 11.4545C212.238 10.9489 212.566 10.5582 212.987 10.2827C213.407 10.0071 213.893 9.86932 214.444 9.86932C214.87 9.86932 215.207 9.94034 215.454 10.0824C215.704 10.2216 215.895 10.3807 216.025 10.5597C216.159 10.7358 216.262 10.8807 216.336 10.9943H216.422V7.77273H217.427V16.5H216.456V15.4943H216.336C216.262 15.6136 216.157 15.7642 216.021 15.946C215.885 16.125 215.69 16.2855 215.437 16.4276C215.184 16.5668 214.848 16.6364 214.427 16.6364ZM214.564 15.733C214.967 15.733 215.308 15.6278 215.586 15.4176C215.865 15.2045 216.076 14.9105 216.221 14.5355C216.366 14.1577 216.439 13.7216 216.439 13.2273C216.439 12.7386 216.368 12.3111 216.225 11.9446C216.083 11.5753 215.873 11.2884 215.595 11.0838C215.316 10.8764 214.973 10.7727 214.564 10.7727C214.137 10.7727 213.782 10.8821 213.498 11.1009C213.217 11.3168 213.005 11.6108 212.863 11.983C212.724 12.3523 212.654 12.767 212.654 13.2273C212.654 13.6932 212.725 14.1165 212.868 14.4972C213.012 14.875 213.225 15.1761 213.507 15.4006C213.791 15.6222 214.143 15.733 214.564 15.733ZM221.335 16.6534C220.92 16.6534 220.544 16.5753 220.206 16.419C219.868 16.2599 219.599 16.0312 219.4 15.733C219.201 15.4318 219.102 15.0682 219.102 14.642C219.102 14.267 219.176 13.9631 219.324 13.7301C219.471 13.4943 219.669 13.3097 219.916 13.1761C220.163 13.0426 220.436 12.9432 220.734 12.8778C221.035 12.8097 221.338 12.7557 221.642 12.7159C222.039 12.6648 222.362 12.6264 222.609 12.6009C222.859 12.5724 223.041 12.5256 223.154 12.4602C223.271 12.3949 223.329 12.2812 223.329 12.1193V12.0852C223.329 11.6648 223.214 11.3381 222.984 11.1051C222.757 10.8722 222.412 10.7557 221.949 10.7557C221.468 10.7557 221.092 10.8608 220.819 11.071C220.547 11.2812 220.355 11.5057 220.244 11.7443L219.289 11.4034C219.46 11.0057 219.687 10.696 219.971 10.4744C220.258 10.25 220.571 10.0937 220.909 10.0057C221.25 9.91477 221.585 9.86932 221.914 9.86932C222.125 9.86932 222.366 9.89489 222.639 9.94602C222.914 9.99432 223.18 10.0952 223.436 10.2486C223.694 10.402 223.909 10.6335 224.079 10.9432C224.25 11.2528 224.335 11.6676 224.335 12.1875V16.5H223.329V15.6136H223.278C223.21 15.7557 223.096 15.9077 222.937 16.0696C222.778 16.2315 222.566 16.3693 222.302 16.483C222.038 16.5966 221.716 16.6534 221.335 16.6534ZM221.488 15.75C221.886 15.75 222.221 15.6719 222.494 15.5156C222.77 15.3594 222.977 15.1577 223.116 14.9105C223.258 14.6634 223.329 14.4034 223.329 14.1307V13.2102C223.287 13.2614 223.193 13.3082 223.048 13.3509C222.906 13.3906 222.741 13.4261 222.554 13.4574C222.369 13.4858 222.189 13.5114 222.012 13.5341C221.839 13.554 221.699 13.571 221.591 13.5852C221.329 13.6193 221.085 13.6747 220.858 13.7514C220.633 13.8253 220.451 13.9375 220.312 14.0881C220.176 14.2358 220.108 14.4375 220.108 14.6932C220.108 15.0426 220.237 15.3068 220.495 15.4858C220.757 15.6619 221.088 15.75 221.488 15.75ZM226.584 18.9545C226.413 18.9545 226.261 18.9403 226.128 18.9119C225.994 18.8864 225.902 18.8608 225.851 18.8352L226.107 17.9489C226.351 18.0114 226.567 18.0341 226.754 18.017C226.942 18 227.108 17.9162 227.253 17.7656C227.401 17.6179 227.536 17.3778 227.658 17.0455L227.845 16.5341L225.425 9.95455H226.516L228.322 15.1705H228.391L230.197 9.95455H231.288L228.51 17.4545C228.385 17.7926 228.23 18.0724 228.045 18.294C227.861 18.5185 227.646 18.6847 227.402 18.7926C227.161 18.9006 226.888 18.9545 226.584 18.9545Z" fill="black" fill-opacity="0.7"/>
<circle cx="248" cy="12" r="3.5" fill="#FFAE4C" stroke="white"/>
<path d="M262.642 16.5L260.256 7.77273H261.33L263.153 14.8807H263.239L265.097 7.77273H266.29L268.148 14.8807H268.233L270.057 7.77273H271.131L268.744 16.5H267.653L265.727 9.54545H265.659L263.733 16.5H262.642ZM274.446 16.6364C273.815 16.6364 273.271 16.4972 272.814 16.2188C272.359 15.9375 272.009 15.5455 271.761 15.0426C271.517 14.5369 271.395 13.9489 271.395 13.2784C271.395 12.608 271.517 12.017 271.761 11.5057C272.009 10.9915 272.352 10.5909 272.793 10.304C273.236 10.0142 273.753 9.86932 274.344 9.86932C274.685 9.86932 275.021 9.92614 275.354 10.0398C275.686 10.1534 275.989 10.3381 276.261 10.5938C276.534 10.8466 276.751 11.1818 276.913 11.5994C277.075 12.017 277.156 12.5312 277.156 13.142V13.5682H272.111V12.6989H276.134C276.134 12.3295 276.06 12 275.912 11.7102C275.767 11.4205 275.56 11.1918 275.29 11.0241C275.023 10.8565 274.707 10.7727 274.344 10.7727C273.943 10.7727 273.597 10.8722 273.304 11.071C273.014 11.267 272.791 11.5227 272.635 11.8381C272.479 12.1534 272.401 12.4915 272.401 12.8523V13.4318C272.401 13.9261 272.486 14.3452 272.656 14.6889C272.83 15.0298 273.07 15.2898 273.376 15.4688C273.683 15.6449 274.04 15.733 274.446 15.733C274.71 15.733 274.949 15.696 275.162 15.6222C275.378 15.5455 275.564 15.4318 275.72 15.2812C275.876 15.1278 275.997 14.9375 276.082 14.7102L277.054 14.983C276.952 15.3125 276.78 15.6023 276.538 15.8523C276.297 16.0994 275.999 16.2926 275.643 16.4318C275.288 16.5682 274.889 16.6364 274.446 16.6364ZM281.158 16.6364C280.612 16.6364 280.131 16.4986 279.713 16.223C279.295 15.9446 278.969 15.5526 278.733 15.0469C278.497 14.5384 278.379 13.9375 278.379 13.2443C278.379 12.5568 278.497 11.9602 278.733 11.4545C278.969 10.9489 279.297 10.5582 279.717 10.2827C280.138 10.0071 280.624 9.86932 281.175 9.86932C281.601 9.86932 281.938 9.94034 282.185 10.0824C282.435 10.2216 282.625 10.3807 282.756 10.5597C282.889 10.7358 282.993 10.8807 283.067 10.9943H283.152V7.77273H284.158V16.5H283.186V15.4943H283.067C282.993 15.6136 282.888 15.7642 282.751 15.946C282.615 16.125 282.42 16.2855 282.168 16.4276C281.915 16.5668 281.578 16.6364 281.158 16.6364ZM281.294 15.733C281.697 15.733 282.038 15.6278 282.317 15.4176C282.595 15.2045 282.807 14.9105 282.952 14.5355C283.097 14.1577 283.169 13.7216 283.169 13.2273C283.169 12.7386 283.098 12.3111 282.956 11.9446C282.814 11.5753 282.604 11.2884 282.325 11.0838C282.047 10.8764 281.703 10.7727 281.294 10.7727C280.868 10.7727 280.513 10.8821 280.229 11.1009C279.947 11.3168 279.736 11.6108 279.594 11.983C279.455 12.3523 279.385 12.767 279.385 13.2273C279.385 13.6932 279.456 14.1165 279.598 14.4972C279.743 14.875 279.956 15.1761 280.237 15.4006C280.521 15.6222 280.874 15.733 281.294 15.733ZM287.145 12.5625V16.5H286.139V9.95455H287.111V10.9773H287.196C287.349 10.6449 287.582 10.3778 287.895 10.1761C288.207 9.97159 288.611 9.86932 289.105 9.86932C289.548 9.86932 289.936 9.96023 290.268 10.142C290.601 10.321 290.859 10.5938 291.044 10.9602C291.229 11.3239 291.321 11.7841 291.321 12.3409V16.5H290.315V12.4091C290.315 11.8949 290.182 11.4943 289.915 11.2074C289.648 10.9176 289.281 10.7727 288.815 10.7727C288.494 10.7727 288.207 10.8423 287.955 10.9815C287.705 11.1207 287.507 11.3239 287.362 11.5909C287.217 11.858 287.145 12.1818 287.145 12.5625ZM295.903 16.6364C295.272 16.6364 294.728 16.4972 294.271 16.2188C293.816 15.9375 293.466 15.5455 293.218 15.0426C292.974 14.5369 292.852 13.9489 292.852 13.2784C292.852 12.608 292.974 12.017 293.218 11.5057C293.466 10.9915 293.809 10.5909 294.25 10.304C294.693 10.0142 295.21 9.86932 295.801 9.86932C296.142 9.86932 296.478 9.92614 296.811 10.0398C297.143 10.1534 297.446 10.3381 297.718 10.5938C297.991 10.8466 298.208 11.1818 298.37 11.5994C298.532 12.017 298.613 12.5312 298.613 13.142V13.5682H293.568V12.6989H297.591C297.591 12.3295 297.517 12 297.369 11.7102C297.224 11.4205 297.017 11.1918 296.747 11.0241C296.48 10.8565 296.164 10.7727 295.801 10.7727C295.4 10.7727 295.054 10.8722 294.761 11.071C294.471 11.267 294.248 11.5227 294.092 11.8381C293.936 12.1534 293.858 12.4915 293.858 12.8523V13.4318C293.858 13.9261 293.943 14.3452 294.113 14.6889C294.287 15.0298 294.527 15.2898 294.833 15.4688C295.14 15.6449 295.497 15.733 295.903 15.733C296.167 15.733 296.406 15.696 296.619 15.6222C296.835 15.5455 297.021 15.4318 297.177 15.2812C297.333 15.1278 297.454 14.9375 297.539 14.7102L298.511 14.983C298.409 15.3125 298.237 15.6023 297.995 15.8523C297.754 16.0994 297.456 16.2926 297.1 16.4318C296.745 16.5682 296.346 16.6364 295.903 16.6364ZM304.779 11.4205L303.876 11.6761C303.819 11.5256 303.735 11.3793 303.625 11.2372C303.517 11.0923 303.369 10.973 303.181 10.8793C302.994 10.7855 302.754 10.7386 302.461 10.7386C302.061 10.7386 301.727 10.831 301.46 11.0156C301.196 11.1974 301.064 11.429 301.064 11.7102C301.064 11.9602 301.154 12.1577 301.336 12.3026C301.518 12.4474 301.802 12.5682 302.189 12.6648L303.16 12.9034C303.745 13.0455 304.181 13.2628 304.468 13.5554C304.755 13.8452 304.899 14.2187 304.899 14.6761C304.899 15.0511 304.791 15.3864 304.575 15.6818C304.362 15.9773 304.064 16.2102 303.68 16.3807C303.297 16.5511 302.85 16.6364 302.342 16.6364C301.674 16.6364 301.122 16.4915 300.684 16.2017C300.247 15.9119 299.97 15.4886 299.853 14.9318L300.808 14.6932C300.899 15.0455 301.071 15.3097 301.324 15.4858C301.579 15.6619 301.913 15.75 302.325 15.75C302.794 15.75 303.166 15.6506 303.441 15.4517C303.72 15.25 303.859 15.0085 303.859 14.7273C303.859 14.5 303.779 14.3097 303.62 14.1562C303.461 14 303.217 13.8835 302.887 13.8068L301.797 13.5511C301.197 13.4091 300.757 13.1889 300.475 12.8906C300.197 12.5895 300.058 12.2131 300.058 11.7614C300.058 11.392 300.162 11.0653 300.369 10.7812C300.579 10.4972 300.865 10.2741 301.225 10.1122C301.589 9.95028 302.001 9.86932 302.461 9.86932C303.109 9.86932 303.618 10.0114 303.987 10.2955C304.359 10.5795 304.623 10.9545 304.779 11.4205ZM308.884 16.6364C308.339 16.6364 307.857 16.4986 307.44 16.223C307.022 15.9446 306.695 15.5526 306.46 15.0469C306.224 14.5384 306.106 13.9375 306.106 13.2443C306.106 12.5568 306.224 11.9602 306.46 11.4545C306.695 10.9489 307.023 10.5582 307.444 10.2827C307.864 10.0071 308.35 9.86932 308.901 9.86932C309.327 9.86932 309.664 9.94034 309.911 10.0824C310.161 10.2216 310.352 10.3807 310.482 10.5597C310.616 10.7358 310.719 10.8807 310.793 10.9943H310.879V7.77273H311.884V16.5H310.913V15.4943H310.793C310.719 15.6136 310.614 15.7642 310.478 15.946C310.342 16.125 310.147 16.2855 309.894 16.4276C309.641 16.5668 309.305 16.6364 308.884 16.6364ZM309.021 15.733C309.424 15.733 309.765 15.6278 310.043 15.4176C310.322 15.2045 310.533 14.9105 310.678 14.5355C310.823 14.1577 310.896 13.7216 310.896 13.2273C310.896 12.7386 310.825 12.3111 310.683 11.9446C310.54 11.5753 310.33 11.2884 310.052 11.0838C309.773 10.8764 309.43 10.7727 309.021 10.7727C308.594 10.7727 308.239 10.8821 307.955 11.1009C307.674 11.3168 307.462 11.6108 307.32 11.983C307.181 12.3523 307.112 12.767 307.112 13.2273C307.112 13.6932 307.183 14.1165 307.325 14.4972C307.469 14.875 307.683 15.1761 307.964 15.4006C308.248 15.6222 308.6 15.733 309.021 15.733ZM315.792 16.6534C315.377 16.6534 315.001 16.5753 314.663 16.419C314.325 16.2599 314.056 16.0312 313.857 15.733C313.658 15.4318 313.559 15.0682 313.559 14.642C313.559 14.267 313.633 13.9631 313.781 13.7301C313.928 13.4943 314.126 13.3097 314.373 13.1761C314.62 13.0426 314.893 12.9432 315.191 12.8778C315.492 12.8097 315.795 12.7557 316.099 12.7159C316.496 12.6648 316.819 12.6264 317.066 12.6009C317.316 12.5724 317.498 12.5256 317.612 12.4602C317.728 12.3949 317.786 12.2812 317.786 12.1193V12.0852C317.786 11.6648 317.671 11.3381 317.441 11.1051C317.214 10.8722 316.869 10.7557 316.406 10.7557C315.925 10.7557 315.549 10.8608 315.276 11.071C315.004 11.2812 314.812 11.5057 314.701 11.7443L313.746 11.4034C313.917 11.0057 314.144 10.696 314.428 10.4744C314.715 10.25 315.028 10.0937 315.366 10.0057C315.707 9.91477 316.042 9.86932 316.371 9.86932C316.582 9.86932 316.823 9.89489 317.096 9.94602C317.371 9.99432 317.637 10.0952 317.893 10.2486C318.151 10.402 318.366 10.6335 318.536 10.9432C318.707 11.2528 318.792 11.6676 318.792 12.1875V16.5H317.786V15.6136H317.735C317.667 15.7557 317.553 15.9077 317.394 16.0696C317.235 16.2315 317.023 16.3693 316.759 16.483C316.495 16.5966 316.173 16.6534 315.792 16.6534ZM315.945 15.75C316.343 15.75 316.678 15.6719 316.951 15.5156C317.227 15.3594 317.434 15.1577 317.573 14.9105C317.715 14.6634 317.786 14.4034 317.786 14.1307V13.2102C317.744 13.2614 317.65 13.3082 317.505 13.3509C317.363 13.3906 317.198 13.4261 317.011 13.4574C316.826 13.4858 316.646 13.5114 316.469 13.5341C316.296 13.554 316.156 13.571 316.048 13.5852C315.786 13.6193 315.542 13.6747 315.315 13.7514C315.09 13.8253 314.908 13.9375 314.769 14.0881C314.633 14.2358 314.565 14.4375 314.565 14.6932C314.565 15.0426 314.694 15.3068 314.952 15.4858C315.214 15.6619 315.545 15.75 315.945 15.75ZM321.041 18.9545C320.87 18.9545 320.718 18.9403 320.585 18.9119C320.451 18.8864 320.359 18.8608 320.308 18.8352L320.564 17.9489C320.808 18.0114 321.024 18.0341 321.211 18.017C321.399 18 321.565 17.9162 321.71 17.7656C321.858 17.6179 321.993 17.3778 322.115 17.0455L322.302 16.5341L319.882 9.95455H320.973L322.779 15.1705H322.848L324.654 9.95455H325.745L322.967 17.4545C322.842 17.7926 322.687 18.0724 322.502 18.294C322.318 18.5185 322.103 18.6847 321.859 18.7926C321.618 18.9006 321.345 18.9545 321.041 18.9545Z" fill="black" fill-opacity="0.7"/>
<circle cx="112.5" cy="36" r="3.5" fill="#537FF1" stroke="white"/>
<path d="M125.08 32.7102V31.7727H131.625V32.7102H128.881V40.5H127.824V32.7102H125.08ZM134.125 36.5625V40.5H133.12V31.7727H134.125V34.9773H134.211C134.364 34.6392 134.594 34.3707 134.901 34.1719C135.211 33.9702 135.623 33.8693 136.137 33.8693C136.583 33.8693 136.973 33.9588 137.309 34.1378C137.644 34.3139 137.904 34.5852 138.088 34.9517C138.276 35.3153 138.37 35.7784 138.37 36.3409V40.5H137.364V36.4091C137.364 35.8892 137.229 35.4872 136.959 35.2031C136.692 34.9162 136.321 34.7727 135.847 34.7727C135.517 34.7727 135.222 34.8423 134.961 34.9815C134.702 35.1207 134.498 35.3239 134.347 35.5909C134.199 35.858 134.125 36.1818 134.125 36.5625ZM144.335 37.8239V33.9545H145.34V40.5H144.335V39.392H144.266C144.113 39.7244 143.874 40.0071 143.55 40.2401C143.227 40.4702 142.817 40.5852 142.323 40.5852C141.914 40.5852 141.55 40.4957 141.232 40.3168C140.914 40.1349 140.664 39.8622 140.482 39.4986C140.3 39.1321 140.21 38.6705 140.21 38.1136V33.9545H141.215V38.0455C141.215 38.5227 141.349 38.9034 141.616 39.1875C141.886 39.4716 142.229 39.6136 142.647 39.6136C142.897 39.6136 143.151 39.5497 143.41 39.4219C143.671 39.294 143.89 39.098 144.066 38.8338C144.245 38.5696 144.335 38.233 144.335 37.8239ZM147.182 40.5V33.9545H148.154V34.9432H148.222C148.341 34.6193 148.557 34.3565 148.87 34.1548C149.182 33.9531 149.534 33.8523 149.926 33.8523C150 33.8523 150.093 33.8537 150.203 33.8565C150.314 33.8594 150.398 33.8636 150.455 33.8693V34.892C150.421 34.8835 150.343 34.8707 150.221 34.8537C150.101 34.8338 149.975 34.8239 149.841 34.8239C149.523 34.8239 149.239 34.8906 148.989 35.0241C148.742 35.1548 148.546 35.3366 148.401 35.5696C148.259 35.7997 148.188 36.0625 148.188 36.358V40.5H147.182ZM156.283 35.4205L155.38 35.6761C155.323 35.5256 155.239 35.3793 155.129 35.2372C155.021 35.0923 154.873 34.973 154.685 34.8793C154.498 34.7855 154.258 34.7386 153.965 34.7386C153.565 34.7386 153.231 34.831 152.964 35.0156C152.7 35.1974 152.567 35.429 152.567 35.7102C152.567 35.9602 152.658 36.1577 152.84 36.3026C153.022 36.4474 153.306 36.5682 153.692 36.6648L154.664 36.9034C155.249 37.0455 155.685 37.2628 155.972 37.5554C156.259 37.8452 156.403 38.2187 156.403 38.6761C156.403 39.0511 156.295 39.3864 156.079 39.6818C155.866 39.9773 155.567 40.2102 155.184 40.3807C154.8 40.5511 154.354 40.6364 153.846 40.6364C153.178 40.6364 152.626 40.4915 152.188 40.2017C151.751 39.9119 151.474 39.4886 151.357 38.9318L152.312 38.6932C152.403 39.0455 152.575 39.3097 152.827 39.4858C153.083 39.6619 153.417 39.75 153.829 39.75C154.298 39.75 154.67 39.6506 154.945 39.4517C155.224 39.25 155.363 39.0085 155.363 38.7273C155.363 38.5 155.283 38.3097 155.124 38.1562C154.965 38 154.721 37.8835 154.391 37.8068L153.3 37.5511C152.701 37.4091 152.261 37.1889 151.979 36.8906C151.701 36.5895 151.562 36.2131 151.562 35.7614C151.562 35.392 151.665 35.0653 151.873 34.7812C152.083 34.4972 152.369 34.2741 152.729 34.1122C153.093 33.9503 153.505 33.8693 153.965 33.8693C154.613 33.8693 155.121 34.0114 155.491 34.2955C155.863 34.5795 156.127 34.9545 156.283 35.4205ZM160.388 40.6364C159.843 40.6364 159.361 40.4986 158.944 40.223C158.526 39.9446 158.199 39.5526 157.963 39.0469C157.728 38.5384 157.61 37.9375 157.61 37.2443C157.61 36.5568 157.728 35.9602 157.963 35.4545C158.199 34.9489 158.527 34.5582 158.948 34.2827C159.368 34.0071 159.854 33.8693 160.405 33.8693C160.831 33.8693 161.168 33.9403 161.415 34.0824C161.665 34.2216 161.855 34.3807 161.986 34.5597C162.12 34.7358 162.223 34.8807 162.297 34.9943H162.382V31.7727H163.388V40.5H162.417V39.4943H162.297C162.223 39.6136 162.118 39.7642 161.982 39.946C161.846 40.125 161.651 40.2855 161.398 40.4276C161.145 40.5668 160.809 40.6364 160.388 40.6364ZM160.525 39.733C160.928 39.733 161.269 39.6278 161.547 39.4176C161.826 39.2045 162.037 38.9105 162.182 38.5355C162.327 38.1577 162.4 37.7216 162.4 37.2273C162.4 36.7386 162.328 36.3111 162.186 35.9446C162.044 35.5753 161.834 35.2884 161.556 35.0838C161.277 34.8764 160.934 34.7727 160.525 34.7727C160.098 34.7727 159.743 34.8821 159.459 35.1009C159.178 35.3168 158.966 35.6108 158.824 35.983C158.685 36.3523 158.615 36.767 158.615 37.2273C158.615 37.6932 158.686 38.1165 158.828 38.4972C158.973 38.875 159.186 39.1761 159.468 39.4006C159.752 39.6222 160.104 39.733 160.525 39.733ZM167.296 40.6534C166.881 40.6534 166.505 40.5753 166.167 40.419C165.828 40.2599 165.56 40.0312 165.361 39.733C165.162 39.4318 165.063 39.0682 165.063 38.642C165.063 38.267 165.137 37.9631 165.284 37.7301C165.432 37.4943 165.63 37.3097 165.877 37.1761C166.124 37.0426 166.397 36.9432 166.695 36.8778C166.996 36.8097 167.299 36.7557 167.603 36.7159C168 36.6648 168.323 36.6264 168.57 36.6009C168.82 36.5724 169.002 36.5256 169.115 36.4602C169.232 36.3949 169.29 36.2812 169.29 36.1193V36.0852C169.29 35.6648 169.175 35.3381 168.945 35.1051C168.718 34.8722 168.373 34.7557 167.909 34.7557C167.429 34.7557 167.053 34.8608 166.78 35.071C166.507 35.2812 166.316 35.5057 166.205 35.7443L165.25 35.4034C165.421 35.0057 165.648 34.696 165.932 34.4744C166.219 34.25 166.532 34.0937 166.87 34.0057C167.211 33.9148 167.546 33.8693 167.875 33.8693C168.086 33.8693 168.327 33.8949 168.6 33.946C168.875 33.9943 169.141 34.0952 169.397 34.2486C169.655 34.402 169.87 34.6335 170.04 34.9432C170.211 35.2528 170.296 35.6676 170.296 36.1875V40.5H169.29V39.6136H169.239C169.171 39.7557 169.057 39.9077 168.898 40.0696C168.739 40.2315 168.527 40.3693 168.263 40.483C167.999 40.5966 167.676 40.6534 167.296 40.6534ZM167.449 39.75C167.847 39.75 168.182 39.6719 168.455 39.5156C168.73 39.3594 168.938 39.1577 169.077 38.9105C169.219 38.6634 169.29 38.4034 169.29 38.1307V37.2102C169.248 37.2614 169.154 37.3082 169.009 37.3509C168.867 37.3906 168.702 37.4261 168.515 37.4574C168.33 37.4858 168.15 37.5114 167.973 37.5341C167.8 37.554 167.659 37.571 167.551 37.5852C167.29 37.6193 167.046 37.6747 166.819 37.7514C166.594 37.8253 166.412 37.9375 166.273 38.0881C166.137 38.2358 166.069 38.4375 166.069 38.6932C166.069 39.0426 166.198 39.3068 166.456 39.4858C166.718 39.6619 167.049 39.75 167.449 39.75ZM172.545 42.9545C172.374 42.9545 172.222 42.9403 172.089 42.9119C171.955 42.8864 171.863 42.8608 171.812 42.8352L172.067 41.9489C172.312 42.0114 172.528 42.0341 172.715 42.017C172.903 42 173.069 41.9162 173.214 41.7656C173.362 41.6179 173.496 41.3778 173.619 41.0455L173.806 40.5341L171.386 33.9545H172.477L174.283 39.1705H174.352L176.158 33.9545H177.249L174.471 41.4545C174.346 41.7926 174.191 42.0724 174.006 42.294C173.822 42.5185 173.607 42.6847 173.363 42.7926C173.121 42.9006 172.849 42.9545 172.545 42.9545Z" fill="black" fill-opacity="0.7"/>
<circle cx="194.5" cy="36" r="3.5" fill="#6FD195" stroke="white"/>
<path d="M207.557 40.5V31.7727H212.79V32.7102H208.614V35.6591H212.398V36.5966H208.614V40.5H207.557ZM214.393 40.5V33.9545H215.365V34.9432H215.433C215.552 34.6193 215.768 34.3565 216.081 34.1548C216.393 33.9531 216.745 33.8523 217.137 33.8523C217.211 33.8523 217.304 33.8537 217.414 33.8565C217.525 33.8594 217.609 33.8636 217.666 33.8693V34.892C217.632 34.8835 217.554 34.8707 217.431 34.8537C217.312 34.8338 217.186 34.8239 217.052 34.8239C216.734 34.8239 216.45 34.8906 216.2 35.0241C215.953 35.1548 215.757 35.3366 215.612 35.5696C215.47 35.7997 215.399 36.0625 215.399 36.358V40.5H214.393ZM218.858 40.5V33.9545H219.864V40.5H218.858ZM219.369 32.8636C219.173 32.8636 219.004 32.7969 218.862 32.6634C218.723 32.5298 218.653 32.3693 218.653 32.1818C218.653 31.9943 218.723 31.8338 218.862 31.7003C219.004 31.5668 219.173 31.5 219.369 31.5C219.565 31.5 219.733 31.5668 219.872 31.7003C220.014 31.8338 220.085 31.9943 220.085 32.1818C220.085 32.3693 220.014 32.5298 219.872 32.6634C219.733 32.7969 219.565 32.8636 219.369 32.8636ZM224.177 40.6364C223.632 40.6364 223.15 40.4986 222.733 40.223C222.315 39.9446 221.988 39.5526 221.752 39.0469C221.517 38.5384 221.399 37.9375 221.399 37.2443C221.399 36.5568 221.517 35.9602 221.752 35.4545C221.988 34.9489 222.316 34.5582 222.737 34.2827C223.157 34.0071 223.643 33.8693 224.194 33.8693C224.62 33.8693 224.957 33.9403 225.204 34.0824C225.454 34.2216 225.645 34.3807 225.775 34.5597C225.909 34.7358 226.012 34.8807 226.086 34.9943H226.172V31.7727H227.177V40.5H226.206V39.4943H226.086C226.012 39.6136 225.907 39.7642 225.771 39.946C225.635 40.125 225.44 40.2855 225.187 40.4276C224.934 40.5668 224.598 40.6364 224.177 40.6364ZM224.314 39.733C224.717 39.733 225.058 39.6278 225.336 39.4176C225.615 39.2045 225.826 38.9105 225.971 38.5355C226.116 38.1577 226.189 37.7216 226.189 37.2273C226.189 36.7386 226.118 36.3111 225.975 35.9446C225.833 35.5753 225.623 35.2884 225.345 35.0838C225.066 34.8764 224.723 34.7727 224.314 34.7727C223.887 34.7727 223.532 34.8821 223.248 35.1009C222.967 35.3168 222.755 35.6108 222.613 35.983C222.474 36.3523 222.404 36.767 222.404 37.2273C222.404 37.6932 222.475 38.1165 222.618 38.4972C222.762 38.875 222.975 39.1761 223.257 39.4006C223.541 39.6222 223.893 39.733 224.314 39.733ZM231.085 40.6534C230.67 40.6534 230.294 40.5753 229.956 40.419C229.618 40.2599 229.349 40.0312 229.15 39.733C228.951 39.4318 228.852 39.0682 228.852 38.642C228.852 38.267 228.926 37.9631 229.074 37.7301C229.221 37.4943 229.419 37.3097 229.666 37.1761C229.913 37.0426 230.186 36.9432 230.484 36.8778C230.785 36.8097 231.088 36.7557 231.392 36.7159C231.789 36.6648 232.112 36.6264 232.359 36.6009C232.609 36.5724 232.791 36.5256 232.904 36.4602C233.021 36.3949 233.079 36.2812 233.079 36.1193V36.0852C233.079 35.6648 232.964 35.3381 232.734 35.1051C232.507 34.8722 232.162 34.7557 231.699 34.7557C231.218 34.7557 230.842 34.8608 230.569 35.071C230.297 35.2812 230.105 35.5057 229.994 35.7443L229.039 35.4034C229.21 35.0057 229.437 34.696 229.721 34.4744C230.008 34.25 230.321 34.0937 230.659 34.0057C231 33.9148 231.335 33.8693 231.664 33.8693C231.875 33.8693 232.116 33.8949 232.389 33.946C232.664 33.9943 232.93 34.0952 233.186 34.2486C233.444 34.402 233.659 34.6335 233.829 34.9432C234 35.2528 234.085 35.6676 234.085 36.1875V40.5H233.079V39.6136H233.028C232.96 39.7557 232.846 39.9077 232.687 40.0696C232.528 40.2315 232.316 40.3693 232.052 40.483C231.788 40.5966 231.466 40.6534 231.085 40.6534ZM231.238 39.75C231.636 39.75 231.971 39.6719 232.244 39.5156C232.52 39.3594 232.727 39.1577 232.866 38.9105C233.008 38.6634 233.079 38.4034 233.079 38.1307V37.2102C233.037 37.2614 232.943 37.3082 232.798 37.3509C232.656 37.3906 232.491 37.4261 232.304 37.4574C232.119 37.4858 231.939 37.5114 231.762 37.5341C231.589 37.554 231.449 37.571 231.341 37.5852C231.079 37.6193 230.835 37.6747 230.608 37.7514C230.383 37.8253 230.201 37.9375 230.062 38.0881C229.926 38.2358 229.858 38.4375 229.858 38.6932C229.858 39.0426 229.987 39.3068 230.245 39.4858C230.507 39.6619 230.838 39.75 231.238 39.75ZM236.334 42.9545C236.163 42.9545 236.011 42.9403 235.878 42.9119C235.744 42.8864 235.652 42.8608 235.601 42.8352L235.857 41.9489C236.101 42.0114 236.317 42.0341 236.504 42.017C236.692 42 236.858 41.9162 237.003 41.7656C237.151 41.6179 237.286 41.3778 237.408 41.0455L237.595 40.5341L235.175 33.9545H236.266L238.072 39.1705H238.141L239.947 33.9545H241.038L238.26 41.4545C238.135 41.7926 237.98 42.0724 237.795 42.294C237.611 42.5185 237.396 42.6847 237.152 42.7926C236.911 42.9006 236.638 42.9545 236.334 42.9545Z" fill="black" fill-opacity="0.7"/>
</svg>
