<svg width="121" height="53" viewBox="0 0 121 53" fill="none" xmlns="http://www.w3.org/2000/svg">
<path d="M13.8125 36V14.125H17.3125V36H13.8125ZM18.9062 26.125V22.7188H21C22.5208 22.7188 23.3438 21.9792 23.4688 20.5C23.4688 20.375 23.4688 20.25 23.4688 20.125C23.3229 18.4792 22.5 17.6146 21 17.5312H18.9062V14.125H21.2812C25.0729 14.1875 26.9792 16.1667 27 20.0625C27 23.0833 26.0417 24.9688 24.125 25.7188C23.3333 25.9896 22.3854 26.125 21.2812 26.125C21.2396 26.125 20.4479 26.125 18.9062 26.125ZM28.8125 36V13.7812H32.375V36H28.8125ZM33.875 18.6875H37.4375L41.9062 32.2188L38.625 42.0938H35.1875L38.2812 32.1562L33.875 18.6875ZM40.9688 24.5312L43.125 18.6875H46.6562L42.7812 29.4375H42.4375L40.9688 24.5312ZM48 36V14.125H51.5V23.2812H53.5625V26.6875H51.5V36H48ZM55.2188 26.6875V23.2812H57.2812V14.125H60.7812V36H57.2812V26.6875H55.2188ZM63.2188 31.2812V23.375C63.2188 22.3542 63.6771 21.3646 64.5938 20.4062C65.6771 19.2604 67.0417 18.6875 68.6875 18.6875V21.9062C67.6042 21.9062 66.9062 22.3542 66.5938 23.25C66.5312 23.4375 66.5 23.625 66.5 23.8125V30.8438C66.5 31.6354 66.8646 32.2083 67.5938 32.5625C67.9271 32.7292 68.3021 32.8125 68.7188 32.8125V36.0312C66.6979 36.0312 65.1354 35.2188 64.0312 33.5938C63.4896 32.7812 63.2188 32.0104 63.2188 31.2812ZM70.0938 36.0312V32.8125C71.0938 32.8125 71.75 32.3854 72.0625 31.5312C72.1458 31.3021 72.1875 31.0938 72.1875 30.9062V23.8125C72.1875 22.9375 71.7812 22.3542 70.9688 22.0625C70.6979 21.9583 70.3958 21.9062 70.0625 21.9062V18.6875C72.0208 18.6875 73.5312 19.4792 74.5938 21.0625C75.1354 21.875 75.4062 22.6458 75.4062 23.375V31.2812C75.4062 32.3021 74.9688 33.3021 74.0938 34.2812C73.0312 35.4271 71.6979 36.0104 70.0938 36.0312ZM77.7812 31.4062V18.6875H81.1562V31.0312C81.1562 31.6979 81.4896 32.2083 82.1562 32.5625C82.5104 32.75 82.9062 32.8438 83.3438 32.8438V36.1562C81.3229 36.1562 79.75 35.3646 78.625 33.7812C78.0625 32.9688 77.7812 32.1771 77.7812 31.4062ZM84.7188 36.1562V32.8438C85.7604 32.8438 86.4479 32.4375 86.7812 31.625C86.8646 31.4167 86.9062 31.2188 86.9062 31.0312V18.6875H90.2812V31.4062C90.2812 32.3854 89.8438 33.3542 88.9688 34.3125C87.8229 35.5208 86.4062 36.1354 84.7188 36.1562ZM92.0938 31.4375L95.1875 30.875C95.1875 31.6875 95.6146 32.3021 96.4688 32.7188C96.8438 32.9062 97.2083 33 97.5625 33V36.1562C95.3542 36.1562 93.7604 35.375 92.7812 33.8125C92.3229 33.0625 92.0938 32.2708 92.0938 31.4375ZM92.25 23.5C92.25 21.5833 93.1354 20.1562 94.9062 19.2188C95.7604 18.7812 96.6146 18.5625 97.4688 18.5625V21.6562C96.4688 21.6562 95.8021 22.0521 95.4688 22.8438C95.3854 23.0729 95.3438 23.2917 95.3438 23.5C95.3438 24.125 95.8854 24.6771 96.9688 25.1562C97.8854 25.5312 99.2812 25.9375 101.156 26.375C102.594 26.6667 103.615 27.4062 104.219 28.5938C104.531 29.2396 104.688 29.9479 104.688 30.7188C104.688 32.7812 103.854 34.3021 102.188 35.2812C101.229 35.8646 100.135 36.1562 98.9062 36.1562V33.0312C99.7396 33.0312 100.427 32.75 100.969 32.1875C101.302 31.7917 101.469 31.3542 101.469 30.875C101.469 30.1458 100.656 29.5312 99.0312 29.0312C98.6979 28.9271 98.1771 28.7812 97.4688 28.5938C96.4062 28.3438 95.6562 28.1354 95.2188 27.9688C93.6771 27.2812 92.7396 26.2708 92.4062 24.9375C92.3021 24.5 92.25 24.0208 92.25 23.5ZM98.875 21.6562V18.5625C100.708 18.5625 102.188 19.2396 103.312 20.5938C104.021 21.4688 104.375 22.3854 104.375 23.3438L101.281 23.875C101.281 22.8125 100.708 22.1146 99.5625 21.7812C99.3125 21.6979 99.0833 21.6562 98.875 21.6562ZM106.5 31.2812V23.3438C106.542 22.3229 107.01 21.3333 107.906 20.375C109.01 19.2708 110.344 18.7083 111.906 18.6875V21.8125C111.094 21.8125 110.479 22.1771 110.062 22.9062C109.917 23.1562 109.844 23.3854 109.844 23.5938V25.4688H115.781V23.625C115.781 22.75 115.302 22.1771 114.344 21.9062C114.073 21.8229 113.802 21.7812 113.531 21.7812V18.6875C115.01 18.6875 116.323 19.1979 117.469 20.2188C118.427 21.1354 118.917 22.1667 118.938 23.3125V28.6875H109.844V31.2812C109.844 31.8229 110.146 32.2708 110.75 32.625C111.125 32.8333 111.531 32.9375 111.969 32.9375V36C110.031 36 108.5 35.2188 107.375 33.6562C106.792 32.8021 106.5 32.0104 106.5 31.2812ZM113.531 36V32.9062C114.74 32.9062 115.573 32.3958 116.031 31.375C116.094 31.2292 116.146 31.0938 116.188 30.9688L118.969 31.9688C118.594 33.3854 117.75 34.4792 116.438 35.25C115.542 35.75 114.573 36 113.531 36Z" fill="white"/>
<g clip-path="url(#clip0_78_514)">
<path d="M7.48843 1.92725L3.69769 2.13635L3.62316 3.4924C3.79577 3.4334 3.97695 3.40332 4.15937 3.40338C4.59863 3.40338 5.01991 3.57788 5.33051 3.88848C5.64112 4.19909 5.81562 4.62036 5.81562 5.05963C5.81562 5.27713 5.77278 5.4925 5.68954 5.69345C5.60631 5.89439 5.48431 6.07698 5.33051 6.23077C5.17672 6.38457 4.99413 6.50657 4.79319 6.5898C4.59224 6.67304 4.37687 6.71588 4.15937 6.71588C3.7201 6.71588 3.29883 6.54138 2.98822 6.23077C2.67762 5.92017 2.50312 5.49889 2.50312 5.05963C2.50305 4.75255 2.58834 4.4515 2.74949 4.1901L2.08285 2.22537L0.464897 2.31439L0.384155 41.3708L2.76605 41.288L2.82298 30.3257L4.08898 41.2466L8.93765 41.081L7.48843 1.92725ZM44.0812 3.12803L9.68296 4.18906L9.9521 10.2333L47.3109 8.68578L47.6732 4.91988L44.0812 3.12803ZM48.6603 37.4533L41.4105 38.417V47.1263L37.5785 42.2715L36.5937 43.2846L35.6654 49.0828L37.125 49.1552L38.2947 45.6874L39.4644 49.2794L39.9509 49.3105L41.4105 47.1263L41.8867 49.4037L43.781 49.5072L48.6603 37.4533ZM37.3099 44.8366C37.5181 44.8366 38.7134 44.8518 39.024 45.1624C39.3346 45.473 39.024 44.2413 39.024 44.6806C39.024 45.1199 39.9628 44.1257 39.6522 44.4363C39.3415 44.7469 38.9203 44.9214 38.481 44.9214C38.0417 44.9214 37.6205 44.7469 37.3099 44.4363C36.9993 44.1257 36.8248 43.7044 36.8248 43.2652C36.8248 42.8259 36.2831 43.5952 36.5937 43.2846C36.9043 42.9739 36.8706 44.8366 37.3099 44.8366ZM47.3109 41.6917L45.8513 41.7435L45.6546 49.5279L47.3316 49.5175L47.3109 41.6917ZM34.0298 42.1265L24.4029 42.4371L19.8793 44.5384L17.6019 42.6648L-0.434654 43.2548L-0.463638 49.8591L33.7814 49.621L33.916 45.4804C32.5806 45.4494 24.8169 45.2423 24.641 45.2423C24.4753 45.2423 31.7835 44.2175 33.9677 43.8966L34.0298 42.1265ZM7.76792 44.5591C8.20719 44.5591 8.62846 44.7336 8.93907 45.0442C9.24968 45.3548 9.42417 45.7761 9.42417 46.2154C9.42417 46.6546 9.24968 47.0759 8.93907 47.3865C8.62846 47.6971 8.20719 47.8716 7.76792 47.8716C7.32938 47.8705 6.90917 47.6955 6.59945 47.3851C6.28974 47.0746 6.11581 46.6539 6.11581 46.2154C6.11581 45.7768 6.28974 45.3562 6.59945 45.0457C6.90917 44.7352 7.32938 44.5602 7.76792 44.5591ZM2.43894 44.5902C2.65644 44.5902 2.87181 44.633 3.07276 44.7162C3.27371 44.7995 3.45629 44.9215 3.61009 45.0753C3.76388 45.2291 3.88588 45.4117 3.96911 45.6126C4.05235 45.8136 4.09519 46.0289 4.09519 46.2464C4.09519 46.6857 3.92069 47.107 3.61009 47.4176C3.29948 47.7282 2.8782 47.9027 2.43894 47.9027C1.99968 47.9027 1.5784 47.7282 1.26779 47.4176C0.957187 47.107 0.78269 46.6857 0.78269 46.2464C0.78269 45.8072 0.957187 45.3859 1.26779 45.0753C1.5784 44.7647 1.99968 44.5902 2.43894 44.5902Z" fill="#FFBF86"/>
</g>
<defs>
<clipPath id="clip0_78_514">
<rect width="53" height="53" fill="white" transform="translate(0.5)"/>
</clipPath>
</defs>
</svg>
