<svg width="325" height="297" viewBox="0 0 325 297" fill="none" xmlns="http://www.w3.org/2000/svg">
<path d="M64.4542 104.879C73.4594 88.2944 87.4184 74.3255 104.748 64.5565C122.078 54.7875 142.085 49.6094 162.5 49.6094V91.9912C150.834 91.9912 139.402 94.9501 129.499 100.532C119.596 106.115 111.62 114.097 106.474 123.574L64.4542 104.879Z" fill="#6FD195"/>
<path d="M71.8297 183.499C66.2669 171.691 63.5845 158.935 63.9655 146.103C64.3466 133.27 67.7821 120.664 74.0376 109.143L106.474 123.574C102.512 130.87 100.336 138.855 100.095 146.982C99.8535 155.109 101.552 163.188 105.075 170.666L71.8297 183.499Z" fill="#537FF1"/>
<path d="M145.687 242.072C128.255 239.505 111.822 232.99 97.9183 223.132C84.0144 213.273 73.0906 200.392 66.1628 185.686L105.075 170.666C109.205 179.432 115.716 187.11 124.004 192.986C132.292 198.863 142.087 202.746 152.478 204.276L145.687 242.072Z" fill="#FFAE4C"/>
<path d="M162.5 35.4819C193.768 35.4819 223.898 46.1018 246.932 65.2417C269.967 84.3817 284.229 110.648 286.899 138.849L224.7 143.674C223.365 129.574 216.233 116.441 204.716 106.871C193.199 97.3009 178.134 91.991 162.5 91.991L162.5 35.4819Z" fill="#8979FF"/>
<path d="M256.209 141.23C258.247 162.759 251.166 184.184 236.4 201.162L211.551 183.455C221.352 172.185 226.053 157.964 224.7 143.674L256.209 141.23Z" fill="#FF928A"/>
<path d="M246.727 208.521C234.886 222.135 219.233 232.632 201.396 238.919C183.558 245.206 164.186 247.055 145.291 244.273L152.478 204.276C163.482 205.896 174.764 204.819 185.152 201.158C195.54 197.496 204.656 191.383 211.551 183.455L246.727 208.521Z" fill="#3CC3DF"/>
</svg>
