<svg width="57" height="52" viewBox="0 0 57 52" fill="none" xmlns="http://www.w3.org/2000/svg">
<path d="M16.3321 26C8.85713 26 2.79052 20.176 2.79052 13C2.79052 5.824 8.85713 0 16.3321 0C23.807 0 29.8736 5.824 29.8736 13C29.8736 20.176 23.807 26 16.3321 26ZM1.57178 40.56C2.62802 39.52 3.9551 39 5.49883 39H24.457L30.0903 37.102L29.1965 34.658L24.457 36.4H16.8737C15.9258 36.4 15.1675 36.036 14.5446 35.438C13.9217 34.84 13.6238 34.112 13.6238 33.306C13.6238 31.902 14.3279 30.94 15.7362 30.394L35.4256 23.4H40.7068V46.8L21.7487 52L0.000965118 44.2C-0.026118 42.822 0.515545 41.6 1.57178 40.56ZM46.1234 23.4H57V52H46.1234V23.4Z" fill="white" fill-opacity="0.71"/>
</svg>
